<?xml version="1.0" encoding="utf-8"?>
<!-- Generator: Adobe Illustrator 21.0.0, SVG Export Plug-In . SVG Version: 6.00 Build 0)  -->
<svg version="1.1" id="Layer_1" xmlns="http://www.w3.org/2000/svg" xmlns:xlink="http://www.w3.org/1999/xlink" x="0px" y="0px"
	 viewBox="0 0 24 24" style="enable-background:new 0 0 24 24;" xml:space="preserve">
<style type="text/css">
	.st0{fill:#4285F4;}
	.st1{fill:#34A853;}
	.st2{fill:#FBBC05;}
	.st3{fill:#EA4335;}
</style>
<g transform="translate(-.035 .512)">
	<g transform="translate(11.035 12.488)">
		<path class="st0" d="M12.8-0.7c0-0.9-0.1-1.7-0.2-2.5H1.2v4.6h6.5C7.4,3,6.6,4.2,5.3,5.1v3h3.9C11.5,6,12.8,2.9,12.8-0.7L12.8-0.7
			z"/>
		<path class="st1" d="M1.2,11c3.2,0,6-1.1,7.9-2.9l-3.9-3C4.2,5.8,2.9,6.2,1.2,6.2c-3.1,0-5.8-2.1-6.7-4.9h-4v3.1
			C-7.5,8.3-3.5,11,1.2,11L1.2,11z"/>
		<path class="st2" d="M-5.5,1.3C-5.7,0.6-5.9-0.2-5.9-1s0.1-1.6,0.4-2.3v-3.1h-4c-0.8,1.6-1.3,3.5-1.3,5.4s0.5,3.8,1.3,5.4
			L-5.5,1.3L-5.5,1.3z"/>
		<path class="st3" d="M1.2-8.2c1.8,0,3.3,0.6,4.6,1.8l3.4-3.4c-2.1-1.9-4.8-3.1-8-3.1c-4.7,0-8.7,2.7-10.7,6.6l4,3.1
			C-4.5-6.1-1.9-8.2,1.2-8.2L1.2-8.2z"/>
	</g>
</g>
</svg>
