<svg xmlns="http://www.w3.org/2000/svg" viewBox="0 0 20 16">
  <path fill="#1DA1F2" fill-rule="evenodd" d="M20 1.894a8.273 8.273 0 0 1-2.356.636A4.059 4.059 0 0 0 19.448.296a8.283 8.283 0 0 1-2.607.979A4.124 4.124 0 0 0 13.846 0c-2.264 0-4.101 1.809-4.101 4.039 0 .317.035.624.105.92A11.707 11.707 0 0 1 1.392.737 3.986 3.986 0 0 0 .837 2.77c0 1.4.724 2.637 1.825 3.362a4.156 4.156 0 0 1-1.859-.504v.05c0 1.957 1.415 3.59 3.293 3.96a4.065 4.065 0 0 1-1.081.142c-.265 0-.523-.024-.773-.071a4.097 4.097 0 0 0 3.833 2.803 8.314 8.314 0 0 1-5.096 1.73A8.55 8.55 0 0 1 0 14.187 11.767 11.767 0 0 0 6.29 16c7.548 0 11.674-6.154 11.674-11.492 0-.175-.003-.351-.01-.523A8.23 8.23 0 0 0 20 1.895"/>
</svg>
