<svg viewBox="0 0 121.90000915527344 35.99999237060547" width="121.9" height="36" xmlns="http://www.w3.org/2000/svg"><defs><style>.st0{filter:url(#a);} .st1{fill:url(#b_2_);} .st2{fill:#FFFFFF;}</style></defs><path id="b_1_" class="st1" d="M3.3 0h115.3c1.8 0 3.3 1.5 3.3 3.3v29.3c0 1.8-1.5 3.3-3.3 3.3H3.3C1.5 36 0 34.5 0 32.7V3.3C0 1.5 1.5 0 3.3 0z"/><path class="st2" d="M46.4 27.6h2L44 15.3h-2l-4.5 12.4h2l1.1-3.3h4.7l1.1 3.2zm-3.5-10.1h.1l1.8 5.2h-3.7l1.8-5.2zm11 .7c-1.3 0-2.4.6-2.9 1.7h-.1v-1.5H49v12.4h1.8v-4.4h.2c.5 1 1.5 1.6 2.9 1.6 2.3 0 3.8-1.9 3.8-4.8s-1.5-5-3.8-5zm-.6 7.9c-1.5 0-2.5-1.2-2.5-3.2s1-3.2 2.5-3.2c1.6 0 2.5 1.2 2.5 3.2 0 2.1-.9 3.2-2.5 3.2zm10.1-7.9c-1.3 0-2.4.6-2.9 1.7h-.1v-1.5h-1.8v12.4h1.8v-4.4h.1c.5 1 1.5 1.6 2.9 1.6 2.3 0 3.8-1.9 3.8-4.8s-1.4-5-3.8-5zm-.5 7.9c-1.5 0-2.5-1.2-2.5-3.2s1-3.2 2.5-3.2c1.6 0 2.5 1.2 2.5 3.2 0 2.1-1 3.2-2.5 3.2zm8.2-1.8c.1 2.2 2 3.6 4.7 3.6 2.9 0 4.8-1.5 4.8-3.8 0-1.9-1-2.9-3.6-3.5l-1.4-.3c-1.6-.4-2.3-.9-2.3-1.8 0-1.1 1-1.8 2.5-1.8 1.4 0 2.4.7 2.6 1.8h1.9c0-2-1.8-3.5-4.3-3.5-2.7 0-4.5 1.5-4.5 3.7 0 1.8 1 2.9 3.2 3.4l1.6.4c1.6.4 2.3 1 2.3 1.9 0 1.1-1.1 1.9-2.7 1.9s-2.8-.7-3-1.9h-1.8zm11.1-8.2v2.3h-1.5V20h1.5v5.3c0 1.8.8 2.5 2.9 2.5.4 0 .7 0 1-.1v-1.5h-.7c-.9 0-1.3-.4-1.3-1.4V20h2.1v-1.6H84v-2.3h-1.8zm8.5 10.1c-1.6 0-2.5-1.2-2.5-3.2s.9-3.2 2.5-3.2 2.5 1.2 2.5 3.2-.9 3.2-2.5 3.2zm0 1.6c2.7 0 4.4-1.8 4.4-4.8s-1.7-4.8-4.4-4.8-4.4 1.8-4.4 4.8 1.6 4.8 4.4 4.8zm5.2-.2h1.8v-5.5c0-1.3 1-2.2 2.4-2.2.3 0 .9.1 1 .1v-1.8c-.2-.1-.5-.1-.8-.1-1.2 0-2.2.7-2.5 1.6h-.1v-1.4h-1.8v9.3zm9.3-7.9c1.4 0 2.2 1 2.3 2.4h-4.7c.1-1.4 1.1-2.4 2.4-2.4zm2.3 5.4c-.3.7-1.1 1.1-2.2 1.1-1.5 0-2.4-1-2.5-2.7v-.1h6.6v-.6c0-2.9-1.6-4.7-4.2-4.7s-4.3 1.9-4.3 4.9c0 3 1.6 4.8 4.3 4.8 2.1 0 3.6-1 4-2.7h-1.7zM39.2 5.6v5.9h2.1c1.7 0 2.8-1.1 2.8-3s-1-2.9-2.8-2.9h-2.1zm.9.9h1.1c1.2 0 1.9.8 1.9 2.1s-.7 2.1-1.9 2.1h-1.1V6.5zm7.2 4.3c-.8 0-1.2-.6-1.2-1.5 0-1 .4-1.5 1.2-1.5.8 0 1.2.6 1.2 1.5 0 1-.4 1.5-1.2 1.5zm0 .8c1.3 0 2.1-.9 2.1-2.3S48.6 7 47.3 7s-2.1.9-2.1 2.3.8 2.3 2.1 2.3zm9-4.5h-.9l-.8 3.4h-.1l-.9-3.4h-.8l-.9 3.4h-.1L51 7.1h-.9l1.2 4.4h.9l.9-3.3h.1l.9 3.3h.9l1.3-4.4zm1.1 4.4h.9V8.9c0-.7.4-1.1 1.1-1.1.7 0 1 .4 1 1.1v2.7h.9V8.7c0-1.1-.6-1.7-1.5-1.7-.7 0-1.2.3-1.4.8h-.1v-.7h-.8v4.4zm5.3 0h.9V5.4h-.9v6.1zm4.3-.7c-.8 0-1.2-.6-1.2-1.5 0-1 .4-1.5 1.2-1.5.8 0 1.2.6 1.2 1.5 0 1-.5 1.5-1.2 1.5zm0 .8c1.3 0 2.1-.9 2.1-2.3S68.3 7 67 7s-2.1.9-2.1 2.3.8 2.3 2.1 2.3zm4.8-.7c-.5 0-.8-.2-.8-.6 0-.4.3-.6.9-.6l1.1-.1v.4c-.1.4-.6.9-1.2.9zm-.3.7c.6 0 1.1-.3 1.3-.7h.1v.6h.8v-3c0-.9-.6-1.5-1.7-1.5-1 0-1.7.5-1.8 1.3h.8c.1-.3.4-.5.9-.5.6 0 .9.3.9.7v.4l-1.2.1c-1.1.1-1.6.5-1.6 1.3.1.8.7 1.3 1.5 1.3zm5.4 0c.6 0 1.1-.3 1.4-.8h.1v.7h.8V5.4h-.9v2.4h-.1c-.2-.5-.7-.8-1.3-.8-1.2 0-1.9.9-1.9 2.3s.7 2.3 1.9 2.3zm.2-3.8c.7 0 1.2.6 1.2 1.5s-.5 1.5-1.2 1.5-1.2-.6-1.2-1.5.5-1.5 1.2-1.5zm7.9 3c-.8 0-1.2-.6-1.2-1.5 0-1 .4-1.5 1.2-1.5.8 0 1.2.6 1.2 1.5 0 1-.4 1.5-1.2 1.5zm0 .8c1.3 0 2.1-.9 2.1-2.3S86.3 7 85 7s-2.1.9-2.1 2.3.8 2.3 2.1 2.3zm3.4-.1h.9V8.9c0-.7.4-1.1 1.1-1.1.7 0 1 .4 1 1.1v2.7h.9V8.7c0-1.1-.6-1.7-1.5-1.7-.7 0-1.2.3-1.4.8h-.1v-.7h-.8v4.4zM96.5 6v1.1h-.7v.7h.7v2.5c0 .9.4 1.2 1.4 1.2h.5v-.7h-.3c-.4 0-.6-.2-.6-.7V7.8h1v-.7h-1V6h-1zm3.1 5.5h.9V8.9c0-.7.4-1.1 1.2-1.1.7 0 1 .4 1 1.1v2.7h.9V8.7c0-1.1-.6-1.7-1.6-1.7-.7 0-1.2.3-1.4.8h-.1V5.4h-.9v6.1zm7.1-3.8c.6 0 1.1.5 1.1 1.2h-2.2c0-.7.5-1.2 1.1-1.2zm1.1 2.6c-.2.3-.5.5-1.1.5-.7 0-1.2-.5-1.2-1.3h3.1v-.3c0-1.4-.7-2.2-2-2.2-1.2 0-2 .9-2 2.3s.8 2.3 2 2.3c1 0 1.7-.5 1.9-1.3h-.7zM26.933 18.196c0-3 2.4-4.4 2.6-4.5-1.4-2-3.6-2.3-4.3-2.3-1.8-.2-3.6 1.1-4.5 1.1-.9 0-2.4-1.1-3.9-1-2 0-3.8 1.2-4.8 3-2.1 3.6-.5 9 1.5 11.9 1 1.4 2.2 3 3.7 3 1.5-.1 2.1-1 3.9-1 1.8 0 2.3 1 3.9.9 1.6 0 2.6-1.4 3.6-2.9 1.2-1.6 1.6-3.3 1.6-3.4-.2-.1-3.3-1.2-3.3-4.8m-2.9-8.8c.8-1 1.4-2.4 1.2-3.8-1.2.1-2.6.8-3.5 1.8-.7.9-1.4 2.3-1.2 3.7 1.3.1 2.6-.7 3.5-1.7"/></svg>