<svg xmlns="http://www.w3.org/2000/svg" width="169" height="50"><g fill="none" fill-rule="evenodd"><rect width="168.75" height="50" fill="#000" rx="5"/><path d="M37.66 24.73c-.036-4.029 3.299-5.989 3.451-6.08-1.888-2.754-4.816-3.13-5.845-3.16-2.458-.259-4.843 1.471-6.096 1.471-1.277 0-3.206-1.446-5.285-1.403-2.675.04-5.178 1.59-6.55 3.995-2.833 4.903-.72 12.11 1.994 16.073 1.357 1.942 2.943 4.109 5.02 4.033 2.031-.084 2.79-1.295 5.241-1.295 2.429 0 3.141 1.295 5.259 1.246 2.18-.035 3.552-1.95 4.862-3.909 1.569-2.225 2.199-4.416 2.224-4.529-.051-.017-4.234-1.613-4.275-6.442zm-4-11.847c1.093-1.367 1.84-3.225 1.633-5.112-1.582.07-3.56 1.094-4.698 2.43-1.008 1.178-1.908 3.108-1.675 4.923 1.776.132 3.6-.896 4.74-2.241zM67.056 39.38h-2.838l-1.556-4.886h-5.404l-1.482 4.886h-2.764l5.355-16.635h3.308l5.381 16.635zm-4.862-6.936L60.788 28.1c-.15-.444-.428-1.489-.84-3.134h-.05c-.163.708-.427 1.753-.79 3.134l-1.38 4.344h4.466zm18.634.791c0 2.04-.552 3.652-1.654 4.836-.988 1.054-2.214 1.58-3.678 1.58-1.58 0-2.715-.567-3.406-1.702h-.05v6.319h-2.665V31.334c0-1.283-.034-2.599-.099-3.949h2.344l.149 1.901h.05c.889-1.432 2.237-2.147 4.047-2.147 1.415 0 2.597.559 3.542 1.677.947 1.12 1.42 2.593 1.42 4.419zm-2.716.098c0-1.168-.262-2.13-.79-2.888-.576-.79-1.35-1.185-2.32-1.185-.657 0-1.255.22-1.788.654-.535.437-.885 1.008-1.049 1.716-.082.33-.124.6-.124.813v2c0 .872.268 1.608.803 2.21.535.6 1.23.9 2.085.9 1.004 0 1.785-.387 2.344-1.16.56-.773.84-1.793.84-3.06zm16.512-.098c0 2.04-.551 3.652-1.655 4.836-.986 1.054-2.213 1.58-3.676 1.58-1.58 0-2.716-.567-3.406-1.702h-.05v6.319h-2.665V31.334c0-1.283-.033-2.599-.098-3.949h2.343l.15 1.901h.05c.887-1.432 2.236-2.147 4.047-2.147 1.414 0 2.595.559 3.542 1.677.944 1.12 1.418 2.593 1.418 4.419zm-2.715.098c0-1.168-.264-2.13-.792-2.888-.576-.79-1.347-1.185-2.318-1.185-.659 0-1.255.22-1.79.654-.535.437-.884 1.008-1.048 1.716-.081.33-.123.6-.123.813v2c0 .872.267 1.608.8 2.21.535.6 1.23.9 2.087.9 1.004 0 1.785-.387 2.344-1.16.56-.773.84-1.793.84-3.06zm18.14 1.382c0 1.415-.492 2.566-1.478 3.455-1.084.971-2.592 1.456-4.531 1.456-1.79 0-3.225-.345-4.311-1.036l.617-2.221a7.305 7.305 0 0 0 3.853 1.062c1.003 0 1.785-.227 2.346-.68.559-.452.837-1.06.837-1.817 0-.675-.23-1.244-.69-1.705-.46-.461-1.226-.89-2.296-1.286-2.912-1.087-4.367-2.678-4.367-4.77 0-1.368.51-2.49 1.531-3.362 1.017-.873 2.375-1.31 4.072-1.31 1.514 0 2.772.264 3.775.79l-.666 2.173c-.937-.51-1.997-.765-3.183-.765-.938 0-1.67.231-2.196.691a1.975 1.975 0 0 0-.666 1.506c0 .658.254 1.202.764 1.629.444.395 1.25.823 2.42 1.284 1.431.576 2.483 1.25 3.159 2.022.674.77 1.01 1.734 1.01 2.884zm8.811-5.33h-2.938v5.824c0 1.481.518 2.221 1.556 2.221.476 0 .87-.041 1.183-.124l.074 2.024c-.525.196-1.216.295-2.073.295-1.052 0-1.875-.321-2.468-.963-.592-.642-.889-1.72-.889-3.233v-6.047h-1.75v-2h1.75v-2.196l2.617-.79v2.986h2.938v2.003zm13.254 3.899c0 1.843-.528 3.357-1.58 4.541-1.104 1.219-2.569 1.826-4.395 1.826-1.76 0-3.161-.584-4.206-1.751-1.046-1.168-1.568-2.641-1.568-4.418 0-1.858.538-3.38 1.616-4.564 1.077-1.185 2.529-1.778 4.355-1.778 1.76 0 3.177.584 4.245 1.753 1.023 1.133 1.533 2.597 1.533 4.39zm-2.765.086c0-1.106-.236-2.055-.715-2.846-.559-.958-1.358-1.435-2.393-1.435-1.071 0-1.885.479-2.443 1.435-.48.792-.715 1.756-.715 2.896 0 1.106.236 2.055.715 2.845.576.957 1.38 1.435 2.42 1.435 1.017 0 1.816-.487 2.392-1.46.491-.806.739-1.765.739-2.87zm11.427-3.641a4.627 4.627 0 0 0-.84-.074c-.937 0-1.662.354-2.172 1.062-.444.625-.666 1.415-.666 2.37v6.293h-2.664l.025-8.218c0-1.382-.034-2.64-.1-3.776h2.321l.097 2.295h.074c.281-.789.725-1.424 1.333-1.9.594-.428 1.235-.642 1.926-.642.246 0 .469.017.666.049v2.54zm11.919 3.086c0 .478-.031.88-.097 1.209h-7.996c.032 1.185.418 2.091 1.16 2.716.674.559 1.546.839 2.616.839 1.183 0 2.263-.189 3.235-.568l.417 1.85c-1.135.495-2.475.742-4.021.742-1.86 0-3.32-.548-4.383-1.642-1.06-1.093-1.591-2.562-1.591-4.405 0-1.808.494-3.315 1.483-4.516 1.035-1.282 2.433-1.924 4.193-1.924 1.729 0 3.038.642 3.927 1.924.703 1.019 1.057 2.279 1.057 3.775zm-2.541-.691c.017-.79-.156-1.473-.518-2.049-.461-.741-1.17-1.111-2.123-1.111-.872 0-1.58.361-2.122 1.086-.443.576-.707 1.268-.788 2.073h5.55zM61.313 12.511c0 1.472-.442 2.579-1.323 3.323-.816.686-1.976 1.03-3.479 1.03a16.13 16.13 0 0 1-1.916-.098V8.728a14.14 14.14 0 0 1 2.256-.17c1.432 0 2.51.31 3.238.933.815.704 1.224 1.71 1.224 3.02zm-1.382.037c0-.954-.252-1.686-.757-2.196-.505-.508-1.243-.763-2.214-.763-.413 0-.764.027-1.055.085v6.111c.161.025.456.036.885.036 1.003 0 1.776-.279 2.321-.836.545-.558.82-1.37.82-2.438zm8.705 1.248c0 .907-.258 1.649-.776 2.232-.542.598-1.261.897-2.159.897-.865 0-1.553-.286-2.067-.861-.513-.574-.769-1.298-.769-2.17 0-.913.264-1.662.794-2.243s1.242-.872 2.14-.872c.865 0 1.56.286 2.086.86.5.557.751 1.277.751 2.157zm-1.358.043c0-.544-.118-1.01-.352-1.399-.275-.47-.666-.705-1.175-.705-.526 0-.926.235-1.201.705-.235.389-.351.863-.351 1.423 0 .543.117 1.01.351 1.398.284.47.679.705 1.189.705.5 0 .892-.239 1.175-.717.242-.396.364-.866.364-1.41zm11.178-2.94l-1.844 5.892h-1.2l-.763-2.559a19.15 19.15 0 0 1-.474-1.903h-.024a13.938 13.938 0 0 1-.473 1.903l-.812 2.56h-1.213l-1.734-5.893h1.346l.666 2.801c.162.662.294 1.294.4 1.891h.024c.098-.492.259-1.12.486-1.879l.837-2.812h1.067l.801 2.752c.194.672.351 1.318.473 1.94h.036c.089-.606.222-1.252.4-1.94l.715-2.752h1.286v-.001zm6.792 5.892h-1.31v-3.375c0-1.04-.396-1.56-1.188-1.56-.389 0-.703.143-.946.429a1.521 1.521 0 0 0-.364 1.01v3.495h-1.31v-4.207c0-.518-.016-1.08-.047-1.687h1.15l.062.921h.036c.153-.286.38-.522.679-.71.355-.22.753-.332 1.188-.332.55 0 1.007.177 1.37.534.453.436.68 1.087.68 1.952v3.53zm3.612 0h-1.309V8.195h1.309zm7.712-2.995c0 .907-.258 1.649-.776 2.232-.542.598-1.262.897-2.159.897-.866 0-1.555-.286-2.067-.861-.513-.574-.769-1.298-.769-2.17 0-.913.264-1.662.794-2.243s1.242-.872 2.139-.872c.866 0 1.56.286 2.087.86.5.557.751 1.277.751 2.157zm-1.36.043c0-.544-.117-1.01-.35-1.399-.275-.47-.667-.705-1.175-.705-.527 0-.927.235-1.2.705-.236.389-.352.863-.352 1.423 0 .543.117 1.01.351 1.398.284.47.679.705 1.189.705.5 0 .891-.239 1.174-.717.243-.396.363-.866.363-1.41zm7.7 2.952h-1.176l-.097-.679h-.037c-.402.542-.976.813-1.72.813-.557 0-1.007-.179-1.346-.534-.307-.322-.461-.724-.461-1.2 0-.72.3-1.269.904-1.649.602-.38 1.45-.566 2.541-.557v-.11c0-.776-.408-1.164-1.224-1.164-.581 0-1.094.146-1.536.436l-.266-.86c.547-.338 1.223-.508 2.021-.508 1.54 0 2.312.812 2.312 2.437v2.17c0 .589.03 1.058.085 1.405zm-1.36-2.025v-.909c-1.445-.025-2.167.372-2.167 1.188 0 .307.082.537.251.691.169.154.384.23.64.23.288 0 .556-.091.801-.272a1.116 1.116 0 0 0 .475-.928zm8.804 2.025h-1.162l-.062-.946h-.036c-.371.72-1.004 1.08-1.892 1.08-.71 0-1.301-.279-1.77-.836-.469-.558-.703-1.282-.703-2.17 0-.954.254-1.727.764-2.317.494-.55 1.099-.825 1.819-.825.791 0 1.345.267 1.66.8h.025V8.196h1.311v7.009c0 .573.015 1.102.046 1.587zM109 14.306v-.982c0-.17-.013-.308-.036-.413a1.492 1.492 0 0 0-.474-.794 1.288 1.288 0 0 0-.877-.32c-.488 0-.87.193-1.152.582-.279.389-.42.885-.42 1.491 0 .583.134 1.055.403 1.419.283.387.666.581 1.145.581.43 0 .773-.161 1.035-.485.252-.299.376-.659.376-1.079zm12.56-.51c0 .907-.259 1.649-.776 2.232-.543.598-1.26.897-2.159.897-.864 0-1.553-.286-2.068-.861-.512-.574-.768-1.298-.768-2.17 0-.913.264-1.662.794-2.243s1.242-.872 2.14-.872c.865 0 1.56.286 2.086.86.5.557.751 1.277.751 2.157zm-1.358.043c0-.544-.117-1.01-.35-1.399-.277-.47-.667-.705-1.177-.705-.525 0-.925.235-1.201.705-.235.389-.352.863-.352 1.423 0 .543.118 1.01.352 1.398.283.47.678.705 1.188.705.5 0 .894-.239 1.177-.717.241-.396.364-.866.364-1.41zm8.402 2.952h-1.309v-3.375c0-1.04-.395-1.56-1.189-1.56-.389 0-.702.143-.945.429a1.515 1.515 0 0 0-.364 1.01v3.495h-1.31v-4.207c0-.518-.016-1.08-.047-1.687h1.15l.061.921h.036c.154-.286.382-.522.68-.71.355-.22.752-.332 1.188-.332.549 0 1.006.177 1.37.534.454.436.679 1.087.679 1.952v3.53zm8.816-4.911h-1.442v2.862c0 .728.256 1.092.763 1.092.235 0 .43-.02.584-.061l.034.993c-.259.098-.599.147-1.018.147-.517 0-.92-.158-1.211-.473-.292-.315-.438-.845-.438-1.589V11.88h-.86v-.981h.86v-1.08l1.284-.388v1.467h1.443v.982h.001zm6.935 4.911h-1.311v-3.35c0-1.056-.395-1.585-1.186-1.585-.608 0-1.023.306-1.25.919a1.646 1.646 0 0 0-.062.471v3.544h-1.308V8.195h1.308v3.551h.025c.413-.646 1.004-.969 1.77-.969.543 0 .991.178 1.348.534.444.444.666 1.104.666 1.976v3.504zm7.154-3.225c0 .235-.018.433-.049.594h-3.929c.018.582.205 1.026.569 1.334.333.275.761.412 1.286.412a4.34 4.34 0 0 0 1.589-.279l.205.91c-.559.243-1.216.364-1.977.364-.913 0-1.632-.268-2.152-.806-.522-.537-.781-1.259-.781-2.164 0-.888.241-1.628.728-2.218.507-.63 1.193-.945 2.06-.945.847 0 1.49.315 1.926.945.351.5.525 1.118.525 1.853zm-1.25-.339a1.764 1.764 0 0 0-.254-1.006c-.227-.364-.574-.546-1.042-.546-.428 0-.777.177-1.043.534a1.983 1.983 0 0 0-.389 1.018h2.728z" fill="#FFF" fill-rule="nonzero"/></g></svg>