<?xml version="1.0" encoding="utf-8"?>
<svg viewBox="12.93300724029541 6.5959954261779785 99.46700286865234 25.400009155273438" width="99.46700286865234" height="25.400009155273438" xmlns="http://www.w3.org/2000/svg">
  <defs>
    <style type="text/css">
	.st0{filter:url(#a);}
	.st1{fill:url(#b_2_);}
	.st2{fill:#FFFFFF;}
</style>
  </defs>
  <g transform="matrix(1, 0, 0, 1, 3.000001907348633, 0.9999989867210388)">
    <path class="st2" d="M 46.4 27.796 L 48.4 27.796 L 44 15.496 L 42 15.496 L 37.5 27.896 L 39.5 27.896 L 40.6 24.596 L 45.3 24.596 L 46.4 27.796 Z M 42.9 17.696 L 43 17.696 L 44.8 22.896 L 41.1 22.896 L 42.9 17.696 Z M 53.9 18.396 C 52.6 18.396 51.5 18.996 51 20.096 L 50.9 20.096 L 50.9 18.596 L 49 18.596 L 49 30.996 L 50.8 30.996 L 50.8 26.596 L 51 26.596 C 51.5 27.596 52.5 28.196 53.9 28.196 C 56.2 28.196 57.7 26.296 57.7 23.396 C 57.7 20.496 56.2 18.396 53.9 18.396 L 53.9 18.396 Z M 53.3 26.296 C 51.8 26.296 50.8 25.096 50.8 23.096 C 50.8 21.096 51.8 19.896 53.3 19.896 C 54.9 19.896 55.8 21.096 55.8 23.096 C 55.8 25.196 54.9 26.296 53.3 26.296 L 53.3 26.296 Z M 63.4 18.396 C 62.1 18.396 61 18.996 60.5 20.096 L 60.4 20.096 L 60.4 18.596 L 58.6 18.596 L 58.6 30.996 L 60.4 30.996 L 60.4 26.596 L 60.5 26.596 C 61 27.596 62 28.196 63.4 28.196 C 65.7 28.196 67.2 26.296 67.2 23.396 C 67.2 20.496 65.8 18.396 63.4 18.396 L 63.4 18.396 Z M 62.9 26.296 C 61.4 26.296 60.4 25.096 60.4 23.096 C 60.4 21.096 61.4 19.896 62.9 19.896 C 64.5 19.896 65.4 21.096 65.4 23.096 C 65.4 25.196 64.4 26.296 62.9 26.296 L 62.9 26.296 Z M 71.1 24.496 C 71.2 26.696 73.1 28.096 75.8 28.096 C 78.7 28.096 80.6 26.596 80.6 24.296 C 80.6 22.396 79.6 21.396 77 20.796 L 75.6 20.496 C 74 20.096 73.3 19.596 73.3 18.696 C 73.3 17.596 74.3 16.896 75.8 16.896 C 77.2 16.896 78.2 17.596 78.4 18.696 L 80.3 18.696 C 80.3 16.696 78.5 15.196 76 15.196 C 73.3 15.196 71.5 16.696 71.5 18.896 C 71.5 20.696 72.5 21.796 74.7 22.296 L 76.3 22.696 C 77.9 23.096 78.6 23.696 78.6 24.596 C 78.6 25.696 77.5 26.496 75.9 26.496 C 74.3 26.496 73.1 25.796 72.9 24.596 L 71.1 24.596 Z M 82.2 16.296 L 82.2 18.596 L 80.7 18.596 L 80.7 20.196 L 82.2 20.196 L 82.2 25.496 C 82.2 27.296 83 27.996 85.1 27.996 C 85.5 27.996 85.8 27.996 86.1 27.896 L 86.1 26.396 C 85.8 26.396 85.7 26.396 85.4 26.396 C 84.5 26.396 84.1 25.996 84.1 24.996 L 84.1 20.196 L 86.2 20.196 L 86.2 18.596 L 84 18.596 L 84 16.296 L 82.2 16.296 Z M 90.7 26.396 C 89.1 26.396 88.2 25.196 88.2 23.196 C 88.2 21.196 89.1 19.996 90.7 19.996 C 92.3 19.996 93.2 21.196 93.2 23.196 C 93.2 25.196 92.3 26.396 90.7 26.396 L 90.7 26.396 Z M 90.7 27.996 C 93.4 27.996 95.1 26.196 95.1 23.196 C 95.1 20.196 93.4 18.396 90.7 18.396 C 88 18.396 86.3 20.196 86.3 23.196 C 86.3 26.196 87.9 27.996 90.7 27.996 L 90.7 27.996 Z M 95.9 27.796 L 97.7 27.796 L 97.7 22.296 C 97.7 20.996 98.7 20.096 100.1 20.096 C 100.4 20.096 101 20.196 101.1 20.196 L 101.1 18.396 C 100.9 18.296 100.6 18.296 100.3 18.296 C 99.1 18.296 98.1 18.996 97.8 19.896 L 97.7 19.896 L 97.7 18.496 L 95.9 18.496 L 95.9 27.796 Z M 105.2 19.896 C 106.6 19.896 107.4 20.896 107.5 22.296 L 102.8 22.296 C 102.9 20.896 103.9 19.896 105.2 19.896 L 105.2 19.896 Z M 107.5 25.296 C 107.2 25.996 106.4 26.396 105.3 26.396 C 103.8 26.396 102.9 25.396 102.8 23.696 L 102.8 23.596 L 109.4 23.596 L 109.4 22.996 C 109.4 20.096 107.8 18.296 105.2 18.296 C 102.6 18.296 100.9 20.196 100.9 23.196 C 100.9 26.196 102.5 27.996 105.2 27.996 C 107.3 27.996 108.8 26.996 109.2 25.296 L 107.5 25.296 Z M 39.2 5.796 L 39.2 11.696 L 41.3 11.696 C 43 11.696 44.1 10.596 44.1 8.696 C 44.1 6.796 43.1 5.796 41.3 5.796 L 39.2 5.796 Z M 40.1 6.696 L 41.2 6.696 C 42.4 6.696 43.1 7.496 43.1 8.796 C 43.1 10.096 42.4 10.896 41.2 10.896 L 40.1 10.896 L 40.1 6.696 Z M 47.3 10.996 C 46.5 10.996 46.1 10.396 46.1 9.496 C 46.1 8.496 46.5 7.996 47.3 7.996 C 48.1 7.996 48.5 8.596 48.5 9.496 C 48.5 10.496 48.1 10.996 47.3 10.996 L 47.3 10.996 Z M 47.3 11.796 C 48.6 11.796 49.4 10.896 49.4 9.496 C 49.4 8.096 48.6 7.196 47.3 7.196 C 46 7.196 45.2 8.096 45.2 9.496 C 45.2 10.896 46 11.796 47.3 11.796 L 47.3 11.796 Z M 56.3 7.296 L 55.4 7.296 L 54.6 10.696 L 54.5 10.696 L 53.6 7.296 L 52.8 7.296 L 51.9 10.696 L 51.8 10.696 L 51 7.296 L 50.1 7.296 L 51.3 11.696 L 52.2 11.696 L 53.1 8.396 L 53.2 8.396 L 54.1 11.696 L 55 11.696 L 56.3 7.296 Z M 57.4 11.696 L 58.3 11.696 L 58.3 9.096 C 58.3 8.396 58.7 7.996 59.4 7.996 C 60.1 7.996 60.4 8.396 60.4 9.096 L 60.4 11.796 L 61.3 11.796 L 61.3 8.896 C 61.3 7.796 60.7 7.196 59.8 7.196 C 59.1 7.196 58.6 7.496 58.4 7.996 L 58.3 7.996 L 58.3 7.296 L 57.5 7.296 L 57.5 11.696 Z M 62.7 11.696 L 63.6 11.696 L 63.6 5.596 L 62.7 5.596 L 62.7 11.696 Z M 67 10.996 C 66.2 10.996 65.8 10.396 65.8 9.496 C 65.8 8.496 66.2 7.996 67 7.996 C 67.8 7.996 68.2 8.596 68.2 9.496 C 68.2 10.496 67.7 10.996 67 10.996 L 67 10.996 Z M 67 11.796 C 68.3 11.796 69.1 10.896 69.1 9.496 C 69.1 8.096 68.3 7.196 67 7.196 C 65.7 7.196 64.9 8.096 64.9 9.496 C 64.9 10.896 65.7 11.796 67 11.796 L 67 11.796 Z M 71.8 11.096 C 71.3 11.096 71 10.896 71 10.496 C 71 10.096 71.3 9.896 71.9 9.896 L 73 9.796 L 73 10.196 C 72.9 10.596 72.4 11.096 71.8 11.096 L 71.8 11.096 Z M 71.5 11.796 C 72.1 11.796 72.6 11.496 72.8 11.096 L 72.9 11.096 L 72.9 11.696 L 73.7 11.696 L 73.7 8.696 C 73.7 7.796 73.1 7.196 72 7.196 C 71 7.196 70.3 7.696 70.2 8.496 L 71 8.496 C 71.1 8.196 71.4 7.996 71.9 7.996 C 72.5 7.996 72.8 8.296 72.8 8.696 L 72.8 9.096 L 71.6 9.196 C 70.5 9.296 70 9.696 70 10.496 C 70.1 11.296 70.7 11.796 71.5 11.796 L 71.5 11.796 Z M 76.9 11.796 C 77.5 11.796 78 11.496 78.3 10.996 L 78.4 10.996 L 78.4 11.696 L 79.2 11.696 L 79.2 5.596 L 78.3 5.596 L 78.3 7.996 L 78.2 7.996 C 78 7.496 77.5 7.196 76.9 7.196 C 75.7 7.196 75 8.096 75 9.496 C 75 10.896 75.7 11.796 76.9 11.796 L 76.9 11.796 Z M 77.1 7.996 C 77.8 7.996 78.3 8.596 78.3 9.496 C 78.3 10.396 77.8 10.996 77.1 10.996 C 76.4 10.996 75.9 10.396 75.9 9.496 C 75.9 8.596 76.4 7.996 77.1 7.996 L 77.1 7.996 Z M 85 10.996 C 84.2 10.996 83.8 10.396 83.8 9.496 C 83.8 8.496 84.2 7.996 85 7.996 C 85.8 7.996 86.2 8.596 86.2 9.496 C 86.2 10.496 85.8 10.996 85 10.996 L 85 10.996 Z M 85 11.796 C 86.3 11.796 87.1 10.896 87.1 9.496 C 87.1 8.096 86.3 7.196 85 7.196 C 83.7 7.196 82.9 8.096 82.9 9.496 C 82.9 10.896 83.7 11.796 85 11.796 L 85 11.796 Z M 88.4 11.696 L 89.3 11.696 L 89.3 9.096 C 89.3 8.396 89.7 7.996 90.4 7.996 C 91.1 7.996 91.4 8.396 91.4 9.096 L 91.4 11.796 L 92.3 11.796 L 92.3 8.896 C 92.3 7.796 91.7 7.196 90.8 7.196 C 90.1 7.196 89.6 7.496 89.4 7.996 L 89.3 7.996 L 89.3 7.296 L 88.5 7.296 L 88.5 11.696 Z M 96.5 6.196 L 96.5 7.296 L 95.8 7.296 L 95.8 7.996 L 96.5 7.996 L 96.5 10.496 C 96.5 11.396 96.9 11.696 97.9 11.696 C 98.1 11.696 98.2 11.696 98.4 11.696 L 98.4 10.996 C 98.3 10.996 98.2 10.996 98.1 10.996 C 97.7 10.996 97.5 10.796 97.5 10.296 L 97.5 7.996 L 98.5 7.996 L 98.5 7.296 L 97.5 7.296 L 97.5 6.196 L 96.5 6.196 Z M 99.6 11.696 L 100.5 11.696 L 100.5 9.096 C 100.5 8.396 100.9 7.996 101.7 7.996 C 102.4 7.996 102.7 8.396 102.7 9.096 L 102.7 11.796 L 103.6 11.796 L 103.6 8.896 C 103.6 7.796 103 7.196 102 7.196 C 101.3 7.196 100.8 7.496 100.6 7.996 L 100.5 7.996 L 100.5 5.596 L 99.6 5.596 L 99.6 11.696 Z M 106.7 7.896 C 107.3 7.896 107.8 8.396 107.8 9.096 L 105.6 9.096 C 105.6 8.396 106.1 7.896 106.7 7.896 L 106.7 7.896 Z M 107.8 10.496 C 107.6 10.796 107.3 10.996 106.7 10.996 C 106 10.996 105.5 10.496 105.5 9.696 L 105.5 9.696 L 108.6 9.696 L 108.6 9.396 C 108.6 7.996 107.9 7.196 106.6 7.196 C 105.4 7.196 104.6 8.096 104.6 9.496 C 104.6 10.896 105.4 11.796 106.6 11.796 C 107.6 11.796 108.3 11.296 108.5 10.496 L 107.8 10.496 Z"/>
    <g transform="translate(10.833 5.596)">
      <path class="st2" d="M16.1,12.6c0-3,2.4-4.4,2.6-4.5c-1.4-2-3.6-2.3-4.3-2.3c-1.8-0.2-3.6,1.1-4.5,1.1c-0.9,0-2.4-1.1-3.9-1&#10;&#9;&#9;&#9;c-2,0-3.8,1.2-4.8,3c-2.1,3.6-0.5,9,1.5,11.9c1,1.4,2.2,3,3.7,3c1.5-0.1,2.1-1,3.9-1c1.8,0,2.3,1,3.9,0.9c1.6,0,2.6-1.4,3.6-2.9&#10;&#9;&#9;&#9;c1.2-1.6,1.6-3.3,1.6-3.4C19.2,17.3,16.1,16.2,16.1,12.6 M13.2,3.8c0.8-1,1.4-2.4,1.2-3.8c-1.2,0.1-2.6,0.8-3.5,1.8&#10;&#9;&#9;&#9;c-0.7,0.9-1.4,2.3-1.2,3.7C11,5.6,12.3,4.8,13.2,3.8"/>
    </g>
  </g>
</svg>