<?xml version="1.0" encoding="utf-8"?>
<!-- Generator: Adobe Illustrator 21.0.2, SVG Export Plug-In . SVG Version: 6.00 Build 0)  -->
<svg version="1.1" id="Layer_1" xmlns="http://www.w3.org/2000/svg" xmlns:xlink="http://www.w3.org/1999/xlink" x="0px" y="0px"
	 viewBox="0 0 153 36" style="enable-background:new 0 0 153 36;" xml:space="preserve">
<style type="text/css">
	.st0{fill:#FFFFFF;}
</style>
<title>Google play</title>
<desc>Created with Sketch.</desc>
<g id="Frontpage">
	<g id="_x30_0-T-Frontpage-Desktop-HD" transform="translate(-358.000000, -7114.000000)">
		<g id="Promote-your-business" transform="translate(174.000000, 6656.000000)">
			<g id="Google-play" transform="translate(183.000000, 458.000000)">
				<g id="Layer_2">
					<g>
						<g id="Layer_1-2">
							<path id="Shape" class="st0" d="M45.1,4.6H44c-0.1-0.4-0.2-0.9-0.3-1.3H42c-0.2,0.4-0.3,0.9-0.3,1.3h-1
								c0-0.1,0.3-0.8,0.8-2.2c0.3-0.7,0.6-1.5,0.8-2.3h1.3c0.2,0.8,0.5,1.5,0.8,2.2C44.7,3.1,44.9,3.8,45.1,4.6L45.1,4.6z
								 M43.5,2.7C43.3,2,43,1.4,42.9,0.7h-0.1c0,0.1-0.2,0.7-0.6,1.9H43.5z"/>
							<path id="Shape_1_" class="st0" d="M49.7,4.6h-0.9c-0.3-0.5-0.6-1-1-1.5c-0.5-0.6-0.9-1.2-1.2-1.9h-0.1
								c0.1,0.5,0.1,0.9,0.1,1.4v2.1h-0.9c0-0.7,0-1.5,0-2.4s0-1.6,0-2.1h1c0.2,0.5,0.5,1,0.9,1.5c0.4,0.6,0.8,1.2,1.1,1.8h0
								c-0.1-0.5-0.1-0.9-0.1-1.4V0.1h0.9v2.1C49.7,3.1,49.7,3.9,49.7,4.6z"/>
							<path id="Shape_2_" class="st0" d="M54.8,2.2c0,0.6-0.2,1.2-0.6,1.7c-0.5,0.5-1.1,0.8-1.8,0.7h-1.5V2.3V0.1h1.5
								c0.7-0.1,1.4,0.2,1.9,0.6C54.6,1.1,54.8,1.7,54.8,2.2z M53.8,2.3c0-0.4-0.1-0.8-0.4-1.1c-0.3-0.3-0.7-0.5-1.2-0.5h-0.4v1.4
								v1.6c0.2,0,0.3,0,0.5,0c0.4,0,0.9-0.1,1.1-0.5C53.7,3.1,53.8,2.7,53.8,2.3L53.8,2.3z"/>
							<path id="Shape_3_" class="st0" d="M59.6,4.6h-1c-0.1-0.5-0.4-1-0.6-1.5c-0.2-0.2-0.4-0.3-0.7-0.3h-0.4v1.8h-1V2.2V0.1h1.7
								c1.1,0,1.6,0.4,1.6,1.1c0,0.6-0.4,1.1-0.9,1.2v0c0.3,0.1,0.5,0.3,0.6,0.5C59.1,3.5,59.4,4,59.6,4.6L59.6,4.6z M58.2,1.4
								c0-0.5-0.3-0.7-0.9-0.7c-0.2,0-0.4,0-0.6,0v1.4h0.3C57.9,2.2,58.2,1.9,58.2,1.4z"/>
							<path id="Shape_4_" class="st0" d="M64.7,2.3c0,0.6-0.2,1.3-0.7,1.8c-0.4,0.5-1,0.7-1.7,0.7c-0.6,0-1.2-0.2-1.6-0.6
								c-0.4-0.4-0.7-1-0.6-1.6c0-0.6,0.2-1.3,0.7-1.8c0.4-0.5,1-0.7,1.7-0.7C63,0,63.6,0.2,64,0.6C64.4,1.1,64.7,1.7,64.7,2.3
								L64.7,2.3z M63.7,2.4c0-0.4-0.1-0.8-0.4-1.2c-0.2-0.3-0.6-0.5-0.9-0.4c-0.4,0-0.7,0.2-0.9,0.4c-0.2,0.3-0.4,0.7-0.4,1.1
								c0,0.4,0.1,0.8,0.4,1.2C61.7,3.8,62.1,4,62.4,4c0.4,0,0.7-0.2,0.9-0.5C63.6,3.2,63.7,2.8,63.7,2.4L63.7,2.4z"/>
							<path id="Shape_5_" class="st0" d="M66.7,4.6h-1V2.2V0.1h1v2.1V4.6z"/>
							<path id="Shape_6_" class="st0" d="M71.8,2.2c0,0.6-0.2,1.2-0.7,1.7c-0.5,0.5-1.1,0.8-1.8,0.7h-1.4V2.3V0.1h1.5
								c0.7-0.1,1.4,0.2,1.9,0.6C71.6,1.1,71.8,1.7,71.8,2.2z M70.8,2.3c0-0.4-0.1-0.8-0.4-1.1c-0.3-0.3-0.7-0.5-1.2-0.5h-0.4v1.4
								v1.6c0.2,0,0.3,0,0.5,0c0.4,0,0.9-0.1,1.1-0.5C70.7,3.1,70.8,2.7,70.8,2.3L70.8,2.3z"/>
							<path id="Shape_7_" class="st0" d="M78.6,4.6h-1.1c-0.1-0.4-0.2-0.9-0.3-1.3h-1.6c-0.2,0.4-0.3,0.9-0.3,1.3h-1.1
								c0-0.1,0.3-0.8,0.8-2.2c0.3-0.7,0.6-1.5,0.8-2.3h1.3c0.2,0.8,0.5,1.5,0.8,2.2C78.2,3.1,78.4,3.8,78.6,4.6L78.6,4.6z M77,2.6
								c-0.2-0.6-0.4-1.3-0.6-1.9h-0.1c0,0.1-0.2,0.7-0.6,1.9H77z"/>
							<path id="Shape_8_" class="st0" d="M82.8,1.3c0,0.5-0.2,1-0.6,1.2c-0.5,0.3-1,0.4-1.5,0.4h-0.2v1.7h-1V2.3V0.1h1.8
								c0.4,0,0.8,0.1,1.1,0.3C82.6,0.6,82.8,0.9,82.8,1.3z M81.8,1.5c0-0.5-0.3-0.7-1-0.7c-0.2,0-0.4,0-0.5,0v1.5h0.2
								C81.4,2.3,81.9,2,81.8,1.5L81.8,1.5z"/>
							<path id="Shape_9_" class="st0" d="M87,1.3c0,0.5-0.2,1-0.6,1.2c-0.5,0.3-1,0.4-1.6,0.4h-0.2v1.7h-1V2.2V0.1h1.8
								c0.4,0,0.8,0.1,1.1,0.3C86.8,0.6,87,0.9,87,1.3L87,1.3z M86.1,1.5c0-0.5-0.3-0.7-1-0.7c-0.2,0-0.4,0-0.5,0v1.5h0.2
								C85.7,2.3,86.1,2,86.1,1.5L86.1,1.5z"/>
							<path id="Shape_10_" class="st0" d="M94,2.3c0,0.6-0.2,1.3-0.7,1.8c-0.4,0.5-1,0.7-1.7,0.7c-0.6,0-1.2-0.2-1.6-0.6
								c-0.4-0.4-0.7-1-0.6-1.6c0-0.6,0.2-1.3,0.7-1.8c0.4-0.5,1-0.7,1.7-0.7c0.6,0,1.2,0.2,1.6,0.6C93.8,1.1,94,1.7,94,2.3z
								 M93,2.4c0-0.4-0.1-0.8-0.4-1.2c-0.2-0.3-0.6-0.5-0.9-0.4c-0.4,0-0.7,0.2-0.9,0.4c-0.2,0.3-0.4,0.7-0.4,1.1
								c0,0.4,0.1,0.8,0.4,1.2C91,3.8,91.4,4,91.8,4c0.4,0,0.7-0.2,0.9-0.5C92.9,3.2,93,2.8,93,2.4L93,2.4z"/>
							<path id="Shape_11_" class="st0" d="M98.8,4.6h-0.9c-0.3-0.5-0.6-1-1-1.5c-0.5-0.6-0.9-1.2-1.2-1.9h-0.1
								c0.1,0.5,0.1,0.9,0.1,1.4v2.1H95V2.2V0.1h1c0.2,0.5,0.5,1,0.9,1.5c0.5,0.6,0.8,1.2,1.1,1.8l0,0c0-0.5,0-0.9,0-1.4V0.1h0.9
								v2.1C98.9,3.1,98.9,3.9,98.8,4.6z"/>
							<path id="Shape_12_" class="st0" d="M56.9,19c0.1,2-0.6,3.9-2,5.3c-1.6,1.6-3.7,2.4-6,2.4c-2.3,0-4.5-0.9-6.1-2.4
								s-2.5-3.7-2.5-5.9c0-2.2,0.9-4.3,2.5-5.9c1.6-1.6,3.8-2.4,6.1-2.4c1.2,0,2.3,0.2,3.4,0.7c1,0.4,1.9,1,2.6,1.8l-1.4,1.4
								c-1.1-1.3-2.8-2-4.5-1.9c-1.7,0-3.4,0.7-4.6,1.9c-1.2,1.2-1.8,2.8-1.8,4.5c-0.1,2.6,1.5,4.9,3.9,5.9c2.4,1,5.2,0.5,7.1-1.3
								c0.8-0.9,1.3-2,1.4-3.2h-6v-1.9h8C57,18.2,57,18.6,56.9,19L56.9,19z"/>
							<path id="Shape_13_" class="st0" d="M59.4,16.7c2.3-2.2,6-2.2,8.3,0c1.1,1.1,1.7,2.6,1.6,4.2c0,1.5-0.5,3-1.6,4.2
								c-2.3,2.2-6,2.2-8.3,0c-1.1-1.1-1.7-2.6-1.6-4.2C57.8,19.3,58.4,17.8,59.4,16.7L59.4,16.7z M61,23.7c0.7,0.7,1.6,1.1,2.6,1.1
								c1,0,1.9-0.4,2.6-1.1c0.8-0.8,1.1-1.8,1.1-2.9c0.1-1.1-0.3-2.1-1.1-2.9c-0.7-0.7-1.6-1.1-2.6-1.1c-1,0-1.9,0.4-2.6,1.1
								c-0.8,0.8-1.1,1.8-1.1,2.9C59.9,21.9,60.2,23,61,23.7z"/>
							<path id="Shape_14_" class="st0" d="M71.7,16.7c2.3-2.2,6-2.2,8.3,0c1.1,1.1,1.7,2.6,1.6,4.2c0,1.5-0.6,3-1.6,4.2
								c-2.3,2.2-6,2.2-8.3,0c-1.1-1.1-1.7-2.6-1.6-4.2C70,19.3,70.6,17.8,71.7,16.7z M73.3,23.7c0.7,0.7,1.6,1.1,2.6,1.1
								c1,0,1.9-0.4,2.6-1.1c0.8-0.8,1.1-1.8,1.1-2.9c0.1-1.1-0.3-2.1-1.1-2.9c-0.7-0.7-1.6-1.1-2.6-1.1c-1,0-1.9,0.4-2.6,1.1
								c-0.8,0.8-1.1,1.8-1.1,2.9C72.1,21.9,72.5,23,73.3,23.7L73.3,23.7z"/>
							<path id="Shape_15_" class="st0" d="M87.9,31.5c-1.2,0.1-2.3-0.3-3.3-1c-0.8-0.6-1.4-1.3-1.8-2.2l1.9-0.8
								c0.2,0.6,0.6,1.1,1.2,1.5c0.6,0.4,1.3,0.6,2,0.6c1,0.1,2-0.3,2.7-1c0.7-0.8,1.1-1.7,1-2.8v-1.1h-0.1c-0.4,0.6-0.9,1-1.6,1.3
								c-0.7,0.4-1.5,0.5-2.3,0.5c-1.4,0-2.8-0.6-3.8-1.7c-1.1-1.1-1.6-2.6-1.6-4.1c0-1.5,0.5-3,1.6-4.1c0.9-1.1,2.3-1.7,3.8-1.7
								c0.8,0,1.6,0.2,2.3,0.5c0.6,0.3,1.2,0.8,1.6,1.3h0.1v-1.5h2v10.4c0.1,1.6-0.5,3.2-1.7,4.3C90.9,31,89.4,31.6,87.9,31.5
								L87.9,31.5z M88,24.8c1,0,1.9-0.4,2.5-1.1c0.7-0.8,1.1-1.9,1-2.9c0.1-1.1-0.3-2.1-1-2.9c-0.7-0.7-1.6-1.1-2.5-1.1
								c-1,0-1.9,0.4-2.5,1.1c-0.7,0.8-1.1,1.8-1.1,2.9c-0.1,1.1,0.3,2.1,1.1,2.9C86.1,24.4,87,24.8,88,24.8z"/>
							<polygon id="Shape_16_" class="st0" points="97.7,26.3 95.6,26.3 95.6,10.4 97.7,10.4 							"/>
							<path id="Shape_17_" class="st0" d="M104.7,26.7c-1.6,0.1-3.1-0.5-4.1-1.7c-1.1-1.1-1.6-2.6-1.6-4.2c0-1.5,0.5-3,1.6-4.1
								c1-1.1,2.5-1.8,4-1.7c1.5-0.1,3,0.5,4,1.6c1,1.2,1.6,2.7,1.5,4.2v0.4h-8.9c0,1,0.4,1.9,1.1,2.6c0.6,0.6,1.5,1,2.4,1
								c1.3,0.1,2.6-0.7,3.1-1.9l1.9,0.8c-0.4,0.9-1,1.6-1.8,2.1C106.9,26.5,105.8,26.7,104.7,26.7z M107.7,19.5
								c-0.1-0.7-0.4-1.3-0.9-1.8c-0.6-0.6-1.5-0.9-2.4-0.8c-0.7,0-1.4,0.2-2,0.7c-0.6,0.5-1,1.2-1.2,1.9L107.7,19.5z"/>
							<path id="Shape_18_" class="st0" d="M118.3,26.3h-2.1v-16h5.6c1.3,0,2.6,0.4,3.6,1.3c1,0.9,1.6,2.1,1.5,3.4
								c0,1.3-0.5,2.5-1.5,3.4c-1,0.9-2.3,1.4-3.6,1.4h-3.5V26.3z M118.3,17.9h3.5c0.8,0,1.6-0.3,2.1-0.9c1.1-1.1,1.1-2.8,0-3.8
								c-0.5-0.6-1.3-0.9-2.1-0.9h-3.5V17.9z"/>
							<polygon id="Shape_19_" class="st0" points="130.4,26.3 128.3,26.3 128.3,10.4 130.4,10.4 							"/>
							<path id="Shape_20_" class="st0" d="M135.8,26.7c-1.1,0-2.2-0.3-3-1c-0.8-0.7-1.2-1.6-1.2-2.7c-0.1-1.1,0.5-2.2,1.4-2.8
								c1-0.7,2.3-1,3.5-1c1,0,2.1,0.2,3,0.7v-0.3c0-0.7-0.3-1.5-0.8-1.9c-0.6-0.5-1.3-0.8-2.1-0.7c-0.6,0-1.2,0.1-1.7,0.4
								c-0.4,0.3-0.7,0.7-0.9,1.1l-2-0.8c0.3-0.7,0.9-1.4,1.5-1.8c0.9-0.6,1.9-0.9,3-0.8c1.3,0,2.6,0.4,3.6,1.2
								c1,0.9,1.5,2.2,1.4,3.5v6.6h-2v-1.5h-0.1C138.7,26,137.3,26.7,135.8,26.7z M136.1,24.8c0.9,0,1.7-0.4,2.4-1
								c0.7-0.6,1.1-1.4,1.1-2.2c-0.8-0.5-1.7-0.8-2.7-0.7c-0.8-0.1-1.6,0.2-2.3,0.6c-0.5,0.4-0.8,0.9-0.8,1.5c0,0.5,0.3,1,0.7,1.3
								C135,24.7,135.6,24.8,136.1,24.8L136.1,24.8z"/>
							<polygon id="Shape_21_" class="st0" points="146.2,31.1 144,31.1 146.6,25.6 142,15.4 144.3,15.4 147.6,23.3 147.6,23.3
								150.9,15.4 153.2,15.4 							"/>
							<path id="Shape_22_" class="st0" d="M1,18.1V2.8c0-0.6,0.2-1.2,0.6-1.7c0.2-0.2,0.3-0.2,0.5,0c3.5,3.5,7.1,7,10.6,10.5
								c2.3,2.3,4.6,4.5,6.9,6.8c0.2,0.2,0.2,0.3,0,0.6C14,24.4,8.4,29.8,2.8,35.3c-0.1,0.1-0.3,0.2-0.4,0.2c-0.2,0-0.3-0.1-0.5-0.2
								C1.3,34.9,1,34.2,1,33.5v-9.1V18.1L1,18.1z"/>
							<path id="Shape_23_" class="st0" d="M3,0.5c0.4,0,0.7,0.1,1,0.3l21.6,11.7c0.3,0.2,0.3,0.3,0.1,0.5c-1.6,1.5-3.2,3.1-4.8,4.6
								c-0.2,0.2-0.3,0.3-0.5,0C14.6,12.1,8.9,6.4,3.2,0.7L3,0.5z"/>
							<path id="Shape_24_" class="st0" d="M4.6,35.1C9.8,30,15.1,24.9,20.3,19.8c0.3-0.3,0.5-0.3,0.8,0c1.3,1.3,2.7,2.7,4,4
								c0.2,0.2,0.3,0.3-0.1,0.5L4.9,34.9C4.8,35,4.7,35.1,4.6,35.1z"/>
							<path id="Shape_25_" class="st0" d="M34.4,18.2c0,0.5-0.3,1-0.7,1.2c-0.3,0.2-0.7,0.4-1,0.6c-2,1.1-4.1,2.2-6.1,3.3
								c-0.1,0.1-0.2,0.1-0.3,0.1c-0.1,0-0.2-0.1-0.3-0.2c-1.4-1.4-2.9-2.9-4.3-4.3c-0.2-0.2-0.2-0.3,0-0.5c1.7-1.6,3.4-3.2,5.1-4.9
								c0.1-0.1,0.2-0.1,0.3-0.2s0.2,0,0.3,0.1c2,1.1,4,2.2,6,3.3C33.9,17,34.3,17.6,34.4,18.2z"/>
						</g>
					</g>
				</g>
			</g>
		</g>
	</g>
</g>
</svg>
