<svg xmlns="http://www.w3.org/2000/svg">
  <symbol id="facebook"  viewBox="0 0 24 24">
    <path d="M13.8 24h-5V12H6.4V7.9h2.5V5.4C8.9 2 10.3 0 14.3 0h3.3v4.1h-2.1c-1.5 0-1.6.6-1.6 1.7v2.1h3.7l-.4 4.1h-3.3v12z"/>
  </symbol>
  <symbol id="google" viewBox="0 0 24 24">
    <path d="M23.8 12.3c0-.9-.1-1.7-.2-2.5H12.2v4.6h6.5c-.3 1.6-1.1 2.8-2.4 3.7v3h3.9c2.3-2.1 3.6-5.2 3.6-8.8z" fill="#4285f4"/>
    <path d="M12.2 24c3.2 0 6-1.1 7.9-2.9l-3.9-3c-1 .7-2.3 1.1-4 1.1-3.1 0-5.8-2.1-6.7-4.9h-4v3.1c2 3.9 6 6.6 10.7 6.6z" fill="#34a853"/>
    <path d="M5.5 14.3c-.2-.7-.4-1.5-.4-2.3s.1-1.6.4-2.3V6.6h-4C.7 8.2.2 10.1.2 12s.5 3.8 1.3 5.4l4-3.1z" fill="#fbbc05"/>
    <path d="M12.2 4.8c1.8 0 3.3.6 4.6 1.8l3.4-3.4c-2.1-1.9-4.8-3.1-8-3.1C7.5.1 3.5 2.8 1.5 6.7l4 3.1c1-2.9 3.6-5 6.7-5z" fill="#ea4335"/>
  </symbol>
  <symbol id="twitter" viewBox="0 0 24 24">
    <path d="M7.52 21.74c9.1 0 14-7.5 14-14v-.6c1-.7 1.8-1.6 2.5-2.5-.9.4-1.8.7-2.8.8 1-.6 1.8-1.6 2.2-2.7-1 .6-2 1-3.1 1.2-.9-1-2.2-1.6-3.6-1.6-2.7 0-4.9 2.2-4.9 4.9 0 .4 0 .8.1 1.1-4.1-.2-7.7-2.2-10.1-5.1-.4.7-.7 1.6-.7 2.5 0 1.7.9 3.2 2.2 4.1-.8 0-1.6-.2-2.2-.6v.1c0 2.4 1.7 4.4 4 4.8-.4.1-.8.2-1.3.2-.3 0-.6 0-.9-.1.6 2 2.4 3.4 4.6 3.4-1.7 1.3-3.8 2.1-6.1 2.1-.4 0-.8 0-1.2-.1 2 1.3 4.5 2.1 7.3 2.1"/>
  </symbol>
</svg>
