<svg xmlns="http://www.w3.org/2000/svg" xmlns:xlink="http://www.w3.org/1999/xlink" viewBox="0 0 22 26"><use transform="translate(18.3)" xlink:href="#a"/><use transform="translate(11.82 8.06)" xlink:href="#a"/><use transform="translate(6.45 8.06)" xlink:href="#a"/><path d="M6.707.446C6.65.434 6.59.442 6.54.476c-.09.066-.11.208-.04.318l1.25 1.82c-1.99.93-3.39 2.7-3.57 4.76h13.64c-.18-2.06-1.58-3.83-3.57-4.76L15.5.794c.07-.11.05-.252-.04-.318-.1-.068-.24-.035-.31.07l-1.31 1.89c-.86-.34-1.81-.53-2.84-.53-1.03 0-1.98.19-2.84.53L6.85.546c-.035-.053-.087-.088-.143-.1zM8.14 3.984c.42 0 .75.33.75.75 0 .41-.33.75-.75.75s-.75-.34-.75-.75c0-.42.33-.75.75-.75zm5.72 0c.42 0 .75.33.75.75 0 .41-.33.75-.75.75s-.75-.34-.75-.75c0-.42.33-.75.75-.75zm-9.68 4.36v11.1c0 .658.628 1.19 1.19 1.19h11.26c.56 0 1.19-.532 1.19-1.19v-11.1H4.18z"/><rect id="a" width="3.04" height="9.17" x=".33" y="8.334" ry="1.52"/></svg>