<svg xmlns="http://www.w3.org/2000/svg" viewBox="0 0 21 26"><path d="M17.5 14.314c0-3.2 2.7-4.73 2.8-4.8-1.5-2.16-3.9-2.46-4.7-2.48-2-.2-3.9 1.16-4.9 1.16-1.07 0-2.63-1.14-4.31-1.11-2.16.04-4.19 1.25-5.3 3.13-2.29 3.85-.584 9.51 1.61 12.6 1.1 1.52 2.38 3.23 4.06 3.17 1.64-.065 2.26-1.02 4.24-1.02 1.97 0 2.54 1.02 4.26.978 1.76-.027 2.88-1.53 3.94-3.07 1.27-1.75 1.78-3.47 1.8-3.56-.04-.014-3.43-1.27-3.46-5.06zM14 4.174c.6-1.11 1.1-2.62 1-4.16-1 .057-2.2.89-2.9 1.98-.627.96-1.18 2.53-1.04 4.01 1.1.108 2.24-.73 2.94-1.83z"/></svg>