<svg xmlns="http://www.w3.org/2000/svg" viewBox="0 0 18 16" enable-background="new 0 0 18 16"><g transform="translate(4.5 -.848)"><defs><filter id="a" filterUnits="userSpaceOnUse" x=".5" y=".8" width="8" height="8"><feColorMatrix values="1 0 0 0 0 0 1 0 0 0 0 0 1 0 0 0 0 0 1 0"/></filter></defs><mask maskUnits="userSpaceOnUse" x=".5" y=".8" width="8" height="8" id="b"><path d="M.5.8h8v8h-8v-8z" filter="url(#a)"/></mask><path d="M4.5.8c-2.2 0-4 1.8-4 4s1.8 4 4 4 4-1.8 4-4-1.8-4-4-4m0 1c1.7 0 3 1.3 3 3s-1.3 3-3 3-3-1.3-3-3 1.3-3 3-3" mask="url(#b)" /></g><path d="M1.5 16.2l-1-.3.9-2.7c.5-1.6 1.9-2.6 3.5-2.6h8.2c1.6 0 3 1.1 3.5 2.6l.9 2.7-1 .3-.9-2.7c-.4-1.2-1.4-1.9-2.6-1.9H4.9c-1.2 0-2.2.8-2.6 1.9l-.8 2.7z" /></svg>