<svg id="svg" xmlns="http://www.w3.org/2000/svg" xmlns:xlink="http://www.w3.org/1999/xlink" viewBox="0 0 400 389.53040800615855" version="1.1"><g id="svgg"><path id="path0" d="M143.167 0.207 C 142.479 0.287,140.942 0.505,139.750 0.692 C 137.119 1.104,137.286 1.073,137.083 1.181 C 136.992 1.229,136.659 1.290,136.344 1.317 C 136.030 1.343,135.581 1.437,135.348 1.526 C 135.115 1.615,134.623 1.728,134.254 1.779 C 133.885 1.830,133.464 1.934,133.317 2.011 C 133.171 2.088,132.853 2.187,132.610 2.231 C 132.191 2.307,131.310 2.569,130.583 2.835 C 130.400 2.901,129.612 3.160,128.833 3.409 C 128.054 3.657,127.154 3.975,126.833 4.114 C 125.800 4.563,125.591 4.644,125.167 4.760 C 124.938 4.823,124.311 5.090,123.775 5.354 C 123.238 5.618,122.694 5.833,122.566 5.833 C 122.438 5.833,122.333 5.908,122.333 6.000 C 122.333 6.092,122.246 6.167,122.138 6.167 C 121.930 6.167,119.806 7.160,119.667 7.323 C 119.621 7.376,119.284 7.569,118.918 7.752 C 118.114 8.152,116.456 9.195,116.315 9.389 C 116.259 9.466,116.179 9.503,116.137 9.473 C 116.032 9.395,113.541 11.042,112.833 11.658 C 112.513 11.937,112.196 12.166,112.131 12.166 C 112.065 12.166,111.793 12.373,111.526 12.625 C 111.259 12.877,110.756 13.308,110.407 13.583 C 109.561 14.250,107.304 16.508,106.167 17.825 C 105.162 18.988,104.503 19.738,103.773 20.552 C 102.463 22.011,102.023 22.512,101.333 23.328 C 100.921 23.817,100.319 24.487,99.996 24.817 C 99.673 25.147,99.073 25.827,98.663 26.328 C 98.252 26.829,97.692 27.481,97.417 27.778 C 97.142 28.075,96.640 28.640,96.301 29.034 C 95.962 29.428,95.362 30.099,94.968 30.525 C 94.573 30.952,93.950 31.657,93.583 32.092 C 93.217 32.528,92.692 33.128,92.417 33.426 C 91.076 34.882,90.833 35.167,90.933 35.167 C 90.992 35.167,90.751 35.458,90.396 35.814 C 90.041 36.170,89.357 36.901,88.876 37.439 C 88.395 37.977,87.698 38.754,87.327 39.167 C 86.957 39.579,86.413 40.205,86.118 40.558 C 85.824 40.910,85.321 41.484,85.000 41.834 C 84.679 42.183,84.079 42.860,83.667 43.338 C 83.254 43.816,82.755 44.382,82.557 44.596 C 82.359 44.809,81.355 45.944,80.326 47.117 C 79.296 48.290,78.052 49.700,77.561 50.250 C 77.071 50.800,76.533 51.414,76.367 51.613 C 75.819 52.271,74.260 54.026,73.708 54.605 C 73.410 54.917,73.167 55.212,73.167 55.260 C 73.167 55.307,72.885 55.632,72.542 55.982 C 72.198 56.331,71.663 56.928,71.352 57.307 C 71.042 57.687,70.592 58.208,70.352 58.465 C 69.876 58.976,67.991 61.097,67.474 61.704 C 66.674 62.642,65.703 63.744,65.167 64.320 C 64.846 64.665,64.208 65.386,63.750 65.921 C 63.292 66.456,62.747 67.080,62.539 67.307 C 62.332 67.534,61.844 68.097,61.456 68.557 C 61.068 69.017,60.539 69.624,60.282 69.905 C 60.025 70.187,59.462 70.815,59.032 71.302 C 58.602 71.789,57.987 72.478,57.667 72.832 C 57.346 73.186,56.746 73.866,56.333 74.344 C 55.921 74.822,55.396 75.418,55.167 75.669 C 54.938 75.920,54.450 76.482,54.083 76.917 C 53.717 77.353,53.210 77.927,52.958 78.193 C 52.706 78.460,52.500 78.755,52.500 78.849 C 52.500 78.943,52.425 78.973,52.333 78.917 C 52.242 78.860,52.167 78.874,52.167 78.949 C 52.167 79.023,51.824 79.459,51.405 79.917 C 50.985 80.375,50.460 80.950,50.238 81.193 C 50.015 81.437,49.833 81.672,49.833 81.715 C 49.833 81.758,49.552 82.091,49.208 82.456 C 48.865 82.820,48.208 83.548,47.750 84.072 C 47.292 84.596,46.692 85.270,46.417 85.569 C 45.100 87.002,43.571 88.736,43.460 88.923 C 43.345 89.118,42.032 90.595,41.216 91.449 C 41.014 91.660,40.884 91.833,40.927 91.833 C 40.971 91.833,40.761 92.081,40.461 92.383 C 39.714 93.137,38.495 94.500,38.568 94.500 C 38.601 94.500,38.281 94.868,37.856 95.319 C 37.431 95.769,36.708 96.570,36.250 97.099 C 35.792 97.627,35.208 98.285,34.954 98.560 C 34.699 98.834,34.174 99.433,33.787 99.890 C 33.400 100.347,32.858 100.960,32.583 101.253 C 32.052 101.818,30.362 103.728,29.667 104.548 C 29.438 104.818,29.063 105.237,28.833 105.478 C 28.604 105.719,27.821 106.622,27.093 107.483 C 26.365 108.345,25.615 109.208,25.426 109.402 C 24.811 110.034,22.703 112.405,22.311 112.906 C 22.100 113.175,21.700 113.625,21.422 113.907 C 21.144 114.189,20.279 115.166,19.500 116.078 C 18.721 116.990,17.896 117.936,17.667 118.181 C 17.438 118.427,16.950 118.977,16.583 119.405 C 16.217 119.832,15.635 120.470,15.292 120.821 C 14.948 121.173,14.667 121.503,14.667 121.554 C 14.667 121.605,14.186 122.158,13.598 122.782 C 13.010 123.406,12.354 124.141,12.140 124.416 C 11.925 124.691,11.506 125.175,11.208 125.492 C 10.910 125.810,10.667 126.166,10.667 126.285 C 10.667 126.403,10.600 126.500,10.519 126.500 C 10.438 126.500,9.991 127.081,9.526 127.792 C 9.061 128.502,8.621 129.159,8.549 129.251 C 8.476 129.343,8.237 129.756,8.017 130.168 C 7.797 130.580,7.504 131.048,7.366 131.208 C 7.228 131.369,7.169 131.500,7.236 131.500 C 7.302 131.500,7.211 131.706,7.034 131.958 C 6.464 132.767,4.845 136.347,3.923 138.833 C 3.669 139.521,3.400 140.233,3.326 140.417 C 3.059 141.078,2.102 144.431,1.947 145.250 C 1.912 145.433,1.840 145.696,1.788 145.833 C 1.736 145.971,1.637 146.383,1.570 146.750 C 1.502 147.117,1.427 147.492,1.403 147.583 C 1.353 147.773,0.674 151.535,0.576 152.167 C 0.097 155.229,-0.123 164.428,0.222 166.917 C 0.298 167.467,0.390 168.217,0.425 168.583 C 0.510 169.469,0.621 170.224,0.828 171.333 C 0.922 171.838,1.034 172.438,1.076 172.667 C 1.118 172.896,1.226 173.328,1.316 173.628 C 1.405 173.928,1.475 174.190,1.472 174.211 C 1.453 174.315,2.027 176.365,2.299 177.167 C 2.345 177.304,2.411 177.557,2.444 177.729 C 2.477 177.901,2.608 178.276,2.734 178.563 C 3.025 179.221,3.217 179.718,3.236 179.861 C 3.244 179.922,3.306 180.028,3.375 180.097 C 3.444 180.166,3.500 180.382,3.500 180.578 C 3.500 180.773,3.566 181.005,3.646 181.092 C 3.726 181.179,3.957 181.775,4.158 182.417 C 4.359 183.058,4.585 183.733,4.659 183.917 C 4.791 184.244,5.183 185.260,5.431 185.917 C 5.500 186.100,5.648 186.550,5.760 186.917 C 5.936 187.494,6.300 188.488,7.256 191.000 C 7.924 192.757,8.544 194.437,8.578 194.583 C 8.599 194.675,8.673 194.900,8.743 195.083 C 8.812 195.267,9.056 195.942,9.286 196.583 C 9.515 197.225,9.870 198.200,10.074 198.750 C 10.278 199.300,10.575 200.125,10.735 200.583 C 11.793 203.616,12.044 204.308,12.264 204.786 C 12.399 205.080,12.698 205.905,12.928 206.619 C 13.319 207.831,13.889 209.417,14.352 210.583 C 14.462 210.858,14.577 211.219,14.609 211.384 C 14.641 211.549,14.770 211.887,14.895 212.134 C 15.020 212.381,15.215 212.883,15.328 213.250 C 15.520 213.869,16.164 215.660,17.365 218.917 C 17.636 219.650,17.885 220.378,17.918 220.535 C 17.951 220.692,18.090 221.067,18.226 221.369 C 18.470 221.909,18.697 222.572,18.764 222.937 C 18.782 223.040,18.914 223.378,19.057 223.687 C 19.301 224.217,20.019 226.217,20.635 228.083 C 20.786 228.542,20.958 228.954,21.017 229.000 C 21.076 229.046,21.180 229.346,21.248 229.667 C 21.316 229.987,21.427 230.325,21.495 230.417 C 21.562 230.508,21.750 230.996,21.913 231.500 C 22.076 232.004,22.287 232.604,22.382 232.833 C 22.477 233.063,22.580 233.381,22.610 233.541 C 22.640 233.701,22.809 234.151,22.985 234.541 C 23.162 234.931,23.356 235.438,23.416 235.667 C 23.477 235.896,23.638 236.330,23.774 236.631 C 23.910 236.933,24.049 237.323,24.083 237.500 C 24.117 237.677,24.257 238.067,24.393 238.369 C 24.529 238.670,24.688 239.104,24.747 239.333 C 24.806 239.563,24.918 239.900,24.995 240.083 C 25.162 240.476,25.380 241.048,25.408 241.167 C 25.431 241.264,25.934 242.653,26.252 243.500 C 26.592 244.404,26.719 244.743,26.750 244.833 C 26.766 244.879,26.824 245.029,26.880 245.167 C 26.935 245.304,27.099 245.792,27.244 246.250 C 27.389 246.708,27.573 247.233,27.653 247.417 C 27.733 247.600,27.926 248.125,28.081 248.583 C 28.237 249.042,28.461 249.642,28.579 249.917 C 28.697 250.192,28.924 250.829,29.084 251.333 C 29.244 251.838,29.440 252.321,29.520 252.408 C 29.601 252.495,29.667 252.703,29.667 252.869 C 29.667 253.035,29.736 253.301,29.820 253.461 C 29.904 253.620,30.137 254.237,30.336 254.833 C 30.536 255.429,30.765 256.067,30.846 256.250 C 31.081 256.785,31.836 258.851,32.095 259.667 C 32.226 260.079,32.406 260.567,32.495 260.750 C 32.683 261.136,33.150 262.452,33.246 262.868 C 33.282 263.024,33.466 263.503,33.656 263.931 C 33.845 264.359,34.000 264.815,34.000 264.944 C 34.000 265.074,34.152 265.477,34.337 265.840 C 34.522 266.203,34.625 266.500,34.566 266.500 C 34.507 266.500,34.553 266.612,34.667 266.750 C 34.781 266.887,34.828 267.000,34.773 267.000 C 34.717 267.000,34.857 267.422,35.085 267.937 C 35.313 268.453,35.500 268.979,35.500 269.106 C 35.500 269.314,35.974 270.497,36.336 271.188 C 36.413 271.337,36.528 271.731,36.590 272.063 C 36.653 272.395,36.761 272.667,36.831 272.667 C 36.900 272.667,37.004 272.948,37.060 273.292 C 37.117 273.635,37.277 274.131,37.415 274.394 C 37.553 274.657,37.667 275.008,37.667 275.176 C 37.667 275.343,37.736 275.523,37.821 275.575 C 37.905 275.628,38.026 275.913,38.090 276.210 C 38.154 276.507,38.287 276.900,38.387 277.083 C 38.486 277.267,38.590 277.557,38.619 277.729 C 38.648 277.901,38.779 278.276,38.911 278.563 C 39.163 279.111,40.085 281.700,40.358 282.629 C 40.446 282.930,40.570 283.143,40.634 283.104 C 40.698 283.065,40.766 283.258,40.786 283.534 C 40.806 283.811,40.890 284.122,40.973 284.227 C 41.055 284.331,41.250 284.829,41.407 285.333 C 41.696 286.268,41.919 286.849,42.192 287.382 C 42.276 287.546,42.305 287.744,42.257 287.821 C 42.210 287.899,42.278 288.051,42.409 288.160 C 42.540 288.269,42.606 288.465,42.556 288.596 C 42.505 288.726,42.539 288.833,42.630 288.833 C 42.721 288.833,42.834 289.040,42.882 289.292 C 42.990 289.871,44.113 293.033,44.997 295.250 C 45.107 295.525,45.223 295.862,45.255 296.000 C 45.288 296.137,45.472 296.662,45.665 297.167 C 46.279 298.769,46.512 299.410,46.574 299.667 C 46.607 299.804,46.835 300.442,47.080 301.083 C 47.326 301.725,47.553 302.378,47.586 302.535 C 47.618 302.692,47.756 303.067,47.891 303.369 C 48.027 303.670,48.296 304.404,48.490 305.000 C 48.684 305.596,48.910 306.233,48.991 306.417 C 49.235 306.963,50.191 309.563,50.248 309.833 C 50.302 310.089,50.750 311.319,51.008 311.917 C 51.411 312.850,51.641 313.500,51.571 313.500 C 51.527 313.500,51.607 313.724,51.749 313.998 C 51.891 314.272,52.007 314.534,52.008 314.580 C 52.010 314.695,52.155 315.142,52.414 315.833 C 52.534 316.154,52.953 317.279,53.344 318.333 C 53.736 319.387,54.100 320.287,54.153 320.333 C 54.206 320.379,54.269 320.510,54.291 320.623 C 54.346 320.898,55.362 323.060,55.486 323.167 C 55.540 323.212,55.769 323.625,55.996 324.083 C 56.223 324.542,56.485 324.970,56.579 325.036 C 56.673 325.101,56.752 325.213,56.754 325.286 C 56.757 325.358,56.875 325.604,57.017 325.833 C 57.159 326.063,57.653 326.858,58.115 327.601 C 59.100 329.187,61.483 332.434,62.184 333.145 C 62.331 333.295,62.518 333.538,62.600 333.686 C 63.006 334.416,69.384 341.000,69.686 341.000 C 69.750 341.000,70.166 341.354,70.610 341.788 C 71.731 342.882,73.643 344.485,74.292 344.875 C 74.590 345.053,74.833 345.272,74.833 345.360 C 74.833 345.448,74.908 345.473,75.000 345.417 C 75.092 345.360,75.167 345.386,75.167 345.475 C 75.167 345.563,75.381 345.774,75.643 345.943 C 75.905 346.112,76.665 346.625,77.333 347.083 C 78.673 348.004,80.114 348.925,80.500 349.108 C 80.637 349.173,80.787 349.278,80.833 349.342 C 80.943 349.496,82.402 350.309,84.167 351.201 C 84.946 351.595,85.631 351.983,85.690 352.063 C 85.748 352.144,85.879 352.158,85.981 352.095 C 86.083 352.032,86.168 352.041,86.169 352.115 C 86.172 352.356,90.856 354.319,92.417 354.733 C 92.508 354.757,92.921 354.877,93.333 355.000 C 94.358 355.304,94.299 355.288,95.375 355.553 C 95.902 355.683,96.333 355.759,96.333 355.722 C 96.333 355.685,96.486 355.737,96.673 355.837 C 96.860 355.937,97.554 356.125,98.215 356.255 C 98.876 356.384,99.604 356.533,99.833 356.584 C 100.063 356.635,100.625 356.751,101.083 356.841 C 101.542 356.930,102.292 357.110,102.750 357.240 C 103.208 357.369,103.846 357.517,104.167 357.567 C 104.487 357.617,105.002 357.733,105.310 357.823 C 105.619 357.913,105.919 357.978,105.977 357.967 C 106.036 357.956,106.196 357.990,106.333 358.043 C 106.471 358.096,106.771 358.179,107.000 358.227 C 108.052 358.446,111.443 359.183,111.667 359.241 C 111.804 359.277,112.516 359.431,113.249 359.585 C 113.981 359.738,114.654 359.909,114.744 359.965 C 114.835 360.020,115.323 360.131,115.829 360.211 C 116.993 360.394,117.192 360.433,117.500 360.541 C 118.075 360.743,122.173 361.667,122.491 361.667 C 122.682 361.667,122.968 361.736,123.127 361.821 C 123.286 361.907,123.867 362.061,124.417 362.165 C 124.967 362.270,125.604 362.390,125.833 362.434 C 126.063 362.477,126.375 362.551,126.528 362.597 C 126.681 362.643,126.981 362.718,127.195 362.763 C 127.409 362.808,127.921 362.918,128.333 363.008 C 128.746 363.098,129.271 363.211,129.500 363.258 C 129.729 363.306,130.142 363.414,130.417 363.498 C 130.692 363.582,131.243 363.697,131.642 363.753 C 132.041 363.809,132.550 363.924,132.773 364.009 C 132.996 364.093,133.232 364.152,133.297 364.138 C 133.363 364.125,133.529 364.157,133.667 364.210 C 133.804 364.263,134.104 364.343,134.333 364.388 C 134.563 364.434,134.938 364.513,135.167 364.566 C 135.396 364.618,135.771 364.698,136.000 364.744 C 136.229 364.789,136.642 364.873,136.917 364.929 C 137.192 364.986,137.642 365.071,137.917 365.120 C 138.192 365.169,138.512 365.285,138.629 365.378 C 138.746 365.471,138.883 365.506,138.934 365.455 C 138.985 365.404,139.527 365.499,140.138 365.667 C 140.750 365.835,141.475 366.014,141.750 366.065 C 142.223 366.153,144.194 366.583,144.917 366.756 C 145.100 366.800,145.662 366.903,146.167 366.985 C 146.671 367.067,147.421 367.249,147.833 367.388 C 148.246 367.528,148.996 367.720,149.500 367.815 C 150.435 367.992,150.534 368.013,151.824 368.309 C 152.232 368.403,152.626 368.442,152.699 368.396 C 152.773 368.351,152.833 368.385,152.833 368.471 C 152.833 368.558,153.178 368.680,153.598 368.744 C 154.753 368.917,154.731 368.912,158.250 369.768 C 158.525 369.835,158.862 369.901,159.000 369.915 C 159.137 369.929,159.561 370.029,159.941 370.138 C 160.322 370.248,160.959 370.405,161.358 370.487 C 162.653 370.756,164.569 371.182,165.167 371.334 C 165.902 371.521,167.735 371.930,169.250 372.246 C 169.892 372.379,170.717 372.563,171.083 372.655 C 171.722 372.814,173.792 373.266,174.667 373.438 C 174.896 373.483,175.383 373.595,175.750 373.687 C 176.411 373.853,177.402 374.082,178.126 374.235 C 178.333 374.279,178.954 374.430,179.507 374.572 C 180.060 374.714,180.565 374.818,180.631 374.805 C 180.696 374.791,180.862 374.822,181.000 374.872 C 181.483 375.048,185.089 375.845,185.542 375.875 C 185.794 375.892,186.000 375.954,186.000 376.014 C 186.000 376.073,186.169 376.108,186.375 376.093 C 186.581 376.077,186.825 376.111,186.917 376.167 C 187.008 376.224,187.496 376.363,188.000 376.476 C 188.504 376.588,189.179 376.749,189.500 376.833 C 189.821 376.917,190.683 377.107,191.417 377.256 C 192.150 377.405,193.500 377.704,194.417 377.920 C 195.333 378.137,196.346 378.358,196.667 378.413 C 196.987 378.467,197.475 378.576,197.750 378.657 C 198.025 378.737,198.850 378.928,199.583 379.082 C 200.825 379.341,201.513 379.493,201.917 379.594 C 202.565 379.757,205.298 380.382,205.500 380.413 C 205.637 380.434,205.938 380.501,206.167 380.560 C 206.396 380.620,206.771 380.700,207.000 380.739 C 207.229 380.777,207.417 380.820,207.417 380.834 C 207.417 380.848,207.529 380.881,207.667 380.909 C 207.804 380.936,208.367 381.057,208.917 381.177 C 209.467 381.298,209.954 381.404,210.000 381.414 C 211.024 381.634,211.462 381.733,211.667 381.793 C 211.804 381.833,212.198 381.904,212.543 381.951 C 212.887 381.997,213.210 382.102,213.261 382.184 C 213.312 382.266,213.520 382.333,213.725 382.333 C 213.929 382.333,214.506 382.439,215.007 382.569 C 215.507 382.698,216.142 382.846,216.417 382.897 C 216.692 382.948,217.442 383.113,218.083 383.262 C 219.931 383.693,222.486 384.251,223.333 384.407 C 223.471 384.433,223.696 384.496,223.833 384.547 C 223.971 384.599,224.383 384.696,224.750 384.764 C 225.117 384.831,225.492 384.907,225.583 384.932 C 225.752 384.977,227.071 385.266,227.833 385.425 C 228.063 385.473,228.475 385.580,228.750 385.663 C 229.025 385.747,229.540 385.858,229.894 385.910 C 230.249 385.962,230.601 386.043,230.676 386.089 C 230.752 386.136,231.250 386.252,231.782 386.348 C 232.314 386.443,232.975 386.587,233.250 386.667 C 234.011 386.890,236.862 387.536,237.333 387.593 C 237.706 387.637,238.362 387.790,240.583 388.351 C 243.175 389.004,249.194 389.584,251.873 389.439 C 255.362 389.250,256.757 389.150,257.333 389.049 C 257.654 388.993,258.142 388.932,258.417 388.912 C 261.808 388.672,269.991 386.632,273.042 385.266 C 273.570 385.030,274.020 384.841,274.042 384.846 C 274.196 384.880,277.333 383.511,277.500 383.337 C 277.546 383.289,277.707 383.230,277.858 383.205 C 278.091 383.167,280.052 382.201,280.578 381.865 C 280.673 381.805,280.787 381.752,280.833 381.748 C 280.993 381.735,282.584 380.765,282.685 380.619 C 282.741 380.538,282.841 380.487,282.907 380.506 C 283.061 380.549,286.428 378.331,287.083 377.754 C 287.358 377.512,287.780 377.208,288.021 377.080 C 288.262 376.951,288.504 376.730,288.558 376.589 C 288.612 376.449,288.722 376.333,288.802 376.333 C 289.240 376.333,294.812 370.759,295.368 369.765 C 295.438 369.640,295.740 369.282,296.039 368.968 C 296.339 368.654,297.033 367.887,297.583 367.263 C 298.133 366.639,298.771 365.916,299.000 365.656 C 300.404 364.064,301.292 363.068,301.583 362.761 C 301.767 362.567,302.515 361.703,303.246 360.841 C 303.977 359.979,304.727 359.117,304.912 358.925 C 305.219 358.607,306.976 356.632,307.719 355.768 C 308.294 355.101,309.585 353.636,310.083 353.087 C 310.358 352.784,310.883 352.181,311.250 351.748 C 312.046 350.808,313.197 349.517,314.000 348.664 C 314.638 347.986,316.103 346.305,316.500 345.796 C 316.637 345.619,317.012 345.197,317.333 344.858 C 317.654 344.519,318.362 343.718,318.907 343.079 C 319.451 342.440,320.051 341.767,320.240 341.583 C 320.429 341.400,320.958 340.803,321.417 340.258 C 321.875 339.712,322.400 339.108,322.583 338.914 C 322.767 338.721,323.217 338.198,323.583 337.752 C 323.950 337.306,324.438 336.739,324.667 336.493 C 325.655 335.431,327.582 333.260,328.800 331.837 C 328.919 331.697,329.369 331.195,329.800 330.719 C 330.231 330.244,330.883 329.502,331.250 329.070 C 331.617 328.637,332.142 328.039,332.417 327.740 C 332.692 327.441,333.367 326.686,333.917 326.062 C 334.467 325.437,335.222 324.587,335.596 324.172 C 335.969 323.756,336.532 323.121,336.846 322.760 C 337.160 322.399,337.792 321.682,338.250 321.167 C 339.331 319.953,340.218 318.942,341.250 317.748 C 341.708 317.218,342.163 316.702,342.259 316.600 C 342.525 316.324,345.263 313.209,346.144 312.182 C 346.569 311.687,347.104 311.076,347.333 310.825 C 347.563 310.574,347.968 310.117,348.235 309.809 C 348.502 309.502,349.102 308.835,349.568 308.327 C 350.035 307.819,350.754 307.002,351.167 306.510 C 351.579 306.018,352.199 305.308,352.543 304.933 C 352.887 304.557,353.375 304.005,353.626 303.706 C 353.878 303.406,354.458 302.754,354.917 302.256 C 355.375 301.758,356.012 301.039,356.333 300.659 C 356.654 300.279,357.093 299.769,357.309 299.526 C 358.776 297.870,359.667 296.874,360.219 296.274 C 360.569 295.894,361.019 295.374,361.219 295.118 C 361.419 294.862,361.808 294.406,362.083 294.106 C 362.358 293.806,362.921 293.167,363.333 292.687 C 363.746 292.207,364.273 291.612,364.504 291.365 C 364.735 291.119,365.479 290.279,366.158 289.500 C 366.837 288.721,367.435 288.046,367.488 288.000 C 367.620 287.885,369.873 285.338,370.265 284.862 C 370.440 284.648,370.733 284.305,370.917 284.100 C 372.962 281.810,373.516 281.193,374.121 280.526 C 374.509 280.099,374.828 279.652,374.830 279.532 C 374.832 279.412,374.908 279.360,375.000 279.417 C 375.092 279.473,375.167 279.453,375.167 279.371 C 375.167 279.289,375.690 278.666,376.330 277.986 C 376.970 277.306,377.495 276.696,377.497 276.631 C 377.499 276.565,378.052 275.928,378.726 275.214 C 379.401 274.501,380.305 273.504,380.736 273.000 C 381.167 272.496,381.796 271.777,382.135 271.402 C 382.473 271.028,383.200 270.209,383.750 269.584 C 384.300 268.958,384.900 268.277,385.083 268.070 C 385.267 267.863,385.754 267.306,386.167 266.831 C 386.579 266.355,387.179 265.679,387.500 265.326 C 387.821 264.974,388.233 264.489,388.417 264.249 C 388.600 264.009,388.865 263.683,389.005 263.526 C 389.145 263.369,389.520 262.867,389.838 262.412 C 390.156 261.956,390.479 261.537,390.556 261.481 C 390.632 261.425,390.686 261.330,390.676 261.269 C 390.665 261.208,390.846 260.909,391.078 260.605 C 391.310 260.301,391.500 259.971,391.500 259.873 C 391.500 259.775,391.568 259.669,391.651 259.639 C 391.824 259.575,393.123 257.211,394.063 255.250 C 394.415 254.517,394.811 253.710,394.944 253.458 C 395.077 253.206,395.135 253.000,395.072 253.000 C 395.010 253.000,395.043 252.900,395.145 252.777 C 395.496 252.353,397.705 245.878,397.898 244.703 C 397.939 244.454,397.984 244.250,397.999 244.250 C 398.030 244.250,398.028 244.258,398.499 242.167 C 398.901 240.385,398.911 240.331,399.150 238.833 C 399.366 237.477,399.614 235.529,399.818 233.583 C 400.029 231.568,400.050 224.532,399.849 223.080 C 399.760 222.440,399.644 221.467,399.591 220.917 C 399.537 220.367,399.421 219.542,399.333 219.083 C 399.137 218.060,398.991 217.216,398.916 216.667 C 398.836 216.086,398.178 213.487,398.008 213.083 C 397.931 212.900,397.716 212.262,397.531 211.667 C 397.345 211.071,397.107 210.358,397.002 210.083 C 396.896 209.808,396.834 209.576,396.863 209.567 C 396.893 209.558,396.833 209.446,396.730 209.317 C 396.627 209.189,396.493 208.802,396.431 208.458 C 396.369 208.115,396.247 207.833,396.159 207.833 C 396.072 207.833,396.000 207.650,396.000 207.427 C 396.000 207.203,395.925 206.973,395.833 206.917 C 395.742 206.860,395.666 206.687,395.666 206.532 C 395.665 206.377,395.553 206.035,395.416 205.773 C 395.279 205.510,395.167 205.190,395.167 205.062 C 395.167 204.934,395.101 204.699,395.020 204.539 C 394.688 203.882,394.371 203.049,394.259 202.543 C 394.194 202.246,394.072 201.961,393.987 201.909 C 393.903 201.856,393.833 201.631,393.833 201.407 C 393.833 201.183,393.758 201.000,393.667 201.000 C 393.575 201.000,393.512 200.944,393.527 200.875 C 393.576 200.654,393.295 199.768,392.973 199.125 C 392.801 198.781,392.701 198.500,392.751 198.500 C 392.801 198.500,392.726 198.275,392.583 198.000 C 392.441 197.725,392.373 197.500,392.433 197.500 C 392.492 197.500,392.463 197.406,392.368 197.292 C 392.273 197.177,392.185 197.028,392.174 196.961 C 392.162 196.894,392.051 196.594,391.928 196.295 C 391.805 195.995,391.649 195.487,391.582 195.167 C 391.514 194.846,391.326 194.283,391.164 193.917 C 390.849 193.205,390.705 192.801,390.716 192.667 C 390.720 192.621,390.629 192.408,390.514 192.194 C 390.400 191.979,390.272 191.617,390.230 191.388 C 390.189 191.159,390.016 190.659,389.847 190.277 C 389.475 189.441,388.748 187.433,388.796 187.376 C 388.814 187.353,388.647 186.921,388.423 186.414 C 388.199 185.908,388.020 185.454,388.025 185.406 C 388.034 185.327,387.948 185.077,387.572 184.083 C 387.502 183.900,387.433 183.713,387.417 183.667 C 387.401 183.621,387.331 183.433,387.262 183.250 C 387.192 183.067,387.074 182.729,387.000 182.500 C 386.926 182.271,386.809 181.933,386.740 181.750 C 386.672 181.567,386.599 181.342,386.578 181.250 C 386.557 181.158,386.316 180.483,386.042 179.750 C 385.769 179.017,385.230 177.554,384.844 176.500 C 384.458 175.446,384.099 174.471,384.046 174.333 C 383.993 174.196,383.931 174.008,383.908 173.917 C 383.885 173.825,383.772 173.525,383.657 173.250 C 383.542 172.975,383.437 172.675,383.423 172.583 C 383.398 172.417,383.262 172.046,382.995 171.417 C 382.918 171.233,382.803 170.902,382.741 170.681 C 382.678 170.460,382.509 170.010,382.365 169.681 C 382.221 169.352,382.093 169.046,382.080 169.000 C 382.067 168.954,381.994 168.692,381.917 168.417 C 381.841 168.142,381.665 167.654,381.527 167.333 C 381.388 167.012,381.258 166.666,381.238 166.563 C 381.219 166.460,381.089 166.122,380.950 165.813 C 380.811 165.503,380.656 165.058,380.604 164.824 C 380.552 164.589,380.382 164.102,380.225 163.740 C 380.069 163.379,379.922 163.008,379.900 162.917 C 379.731 162.237,378.404 158.739,378.298 158.694 C 378.224 158.663,378.201 158.579,378.246 158.507 C 378.290 158.434,378.131 157.897,377.891 157.313 C 377.651 156.728,377.396 156.025,377.324 155.750 C 377.144 155.060,376.483 153.286,376.331 153.083 C 376.262 152.992,376.150 152.654,376.083 152.333 C 376.016 152.012,375.911 151.675,375.848 151.583 C 375.786 151.492,375.597 151.004,375.428 150.500 C 375.259 149.996,375.056 149.512,374.977 149.425 C 374.898 149.338,374.833 149.094,374.833 148.883 C 374.833 148.673,374.758 148.500,374.667 148.500 C 374.575 148.500,374.500 148.388,374.500 148.251 C 374.500 147.962,373.913 146.161,373.569 145.391 C 373.439 145.103,373.333 144.783,373.333 144.681 C 373.333 144.580,373.185 144.178,373.004 143.790 C 372.599 142.919,372.167 141.721,372.060 141.170 C 372.016 140.943,371.928 140.718,371.865 140.670 C 371.802 140.622,371.734 140.508,371.715 140.417 C 371.666 140.178,370.343 136.314,370.175 135.917 C 370.097 135.733,369.913 135.308,369.765 134.972 C 369.618 134.635,369.450 134.127,369.394 133.843 C 369.337 133.559,369.225 133.286,369.145 133.237 C 369.065 133.187,369.000 133.000,369.000 132.821 C 369.000 132.642,368.930 132.365,368.845 132.206 C 368.716 131.964,368.556 131.576,368.417 131.167 C 368.401 131.121,368.294 130.858,368.178 130.583 C 368.062 130.308,367.951 130.008,367.932 129.917 C 367.870 129.626,367.650 128.929,367.512 128.583 C 366.935 127.148,366.667 126.370,366.667 126.136 C 366.667 125.985,366.594 125.836,366.505 125.806 C 366.416 125.775,366.315 125.600,366.280 125.417 C 366.245 125.233,366.171 124.971,366.115 124.833 C 366.059 124.696,365.776 123.871,365.487 123.000 C 365.197 122.129,364.908 121.342,364.844 121.250 C 364.780 121.158,364.583 120.615,364.406 120.042 C 364.228 119.469,364.019 119.000,363.941 119.000 C 363.862 119.000,363.838 118.896,363.886 118.769 C 363.935 118.642,363.864 118.380,363.728 118.186 C 363.592 117.992,363.519 117.833,363.565 117.833 C 363.610 117.833,363.497 117.492,363.312 117.074 C 363.128 116.657,362.877 115.963,362.755 115.533 C 362.518 114.696,361.833 112.740,361.489 111.917 C 361.374 111.642,361.292 111.360,361.306 111.292 C 361.321 111.223,361.246 111.167,361.139 111.167 C 361.032 111.167,360.986 111.125,361.036 111.075 C 361.135 110.977,360.532 109.160,360.200 108.554 C 360.091 108.355,359.980 108.055,359.954 107.888 C 359.928 107.720,359.863 107.508,359.809 107.417 C 359.718 107.262,359.300 106.076,359.236 105.792 C 359.221 105.723,359.193 105.648,359.175 105.625 C 359.156 105.602,359.114 105.471,359.081 105.333 C 359.016 105.064,358.396 103.295,358.175 102.750 C 357.769 101.749,357.092 99.884,357.058 99.674 C 357.017 99.416,356.674 98.547,356.151 97.371 C 355.976 96.979,355.833 96.522,355.833 96.357 C 355.833 96.191,355.777 95.999,355.708 95.931 C 355.640 95.862,355.577 95.756,355.570 95.694 C 355.524 95.318,355.279 94.667,355.184 94.667 C 355.122 94.667,355.065 94.535,355.057 94.375 C 355.049 94.215,354.765 93.333,354.427 92.417 C 354.088 91.500,353.790 90.675,353.764 90.583 C 353.690 90.319,353.484 89.794,353.232 89.225 C 353.104 88.936,353.000 88.592,353.000 88.461 C 353.000 88.330,352.949 88.172,352.887 88.110 C 352.825 88.048,352.606 87.491,352.401 86.873 C 352.040 85.788,351.252 83.581,350.423 81.333 C 350.204 80.737,349.969 80.100,349.901 79.917 C 349.834 79.733,349.772 79.533,349.764 79.472 C 349.756 79.411,349.694 79.305,349.625 79.236 C 349.556 79.167,349.500 79.020,349.500 78.909 C 349.500 78.798,349.375 78.417,349.223 78.062 C 349.070 77.707,348.930 77.304,348.912 77.167 C 348.874 76.876,348.066 74.741,347.884 74.449 C 347.815 74.339,347.739 74.100,347.713 73.917 C 347.672 73.621,347.422 72.936,346.983 71.917 C 346.904 71.733,346.618 70.983,346.348 70.250 C 346.078 69.517,345.632 68.492,345.358 67.973 C 345.083 67.454,344.903 66.986,344.957 66.932 C 345.011 66.878,344.968 66.833,344.861 66.833 C 344.754 66.833,344.667 66.766,344.667 66.683 C 344.667 66.600,344.408 66.075,344.092 65.516 C 343.777 64.957,343.553 64.500,343.596 64.500 C 343.708 64.500,343.125 63.607,342.921 63.464 C 342.827 63.399,342.745 63.287,342.738 63.214 C 342.716 62.967,342.280 62.167,342.168 62.167 C 342.106 62.167,341.841 61.756,341.578 61.255 C 341.316 60.753,340.947 60.172,340.759 59.963 C 340.571 59.754,340.200 59.265,339.936 58.875 C 339.671 58.485,339.390 58.167,339.311 58.167 C 339.231 58.167,339.167 58.069,339.167 57.949 C 339.167 57.830,338.903 57.436,338.580 57.074 C 337.523 55.890,337.255 55.573,336.833 55.007 C 335.847 53.684,332.704 50.441,330.769 48.750 C 330.140 48.200,329.503 47.628,329.354 47.480 C 329.205 47.331,328.596 46.809,328.000 46.319 C 327.404 45.829,326.831 45.351,326.727 45.256 C 326.622 45.161,326.326 44.933,326.067 44.750 C 325.809 44.567,325.463 44.285,325.299 44.125 C 325.135 43.965,325.000 43.871,325.000 43.917 C 325.000 43.963,324.855 43.869,324.679 43.708 C 324.053 43.141,323.868 43.021,323.768 43.121 C 323.712 43.177,323.667 43.145,323.667 43.050 C 323.667 42.955,323.048 42.481,322.292 41.997 C 321.535 41.513,320.872 41.048,320.817 40.964 C 320.762 40.880,320.587 40.792,320.428 40.769 C 320.270 40.746,320.090 40.650,320.028 40.556 C 319.967 40.462,319.505 40.180,319.002 39.930 C 318.498 39.679,318.048 39.423,318.002 39.362 C 317.955 39.300,317.693 39.137,317.420 39.000 C 317.147 38.862,316.518 38.508,316.021 38.213 C 315.525 37.918,315.061 37.712,314.990 37.756 C 314.920 37.800,314.837 37.776,314.806 37.703 C 314.775 37.631,314.300 37.359,313.750 37.100 C 313.200 36.840,312.379 36.449,311.926 36.231 C 311.472 36.012,310.985 35.831,310.842 35.828 C 310.700 35.825,310.438 35.713,310.260 35.578 C 310.082 35.443,309.797 35.333,309.627 35.333 C 309.456 35.333,309.099 35.221,308.834 35.084 C 308.568 34.946,308.216 34.813,308.051 34.787 C 307.885 34.761,307.668 34.689,307.569 34.627 C 307.469 34.565,307.094 34.440,306.735 34.350 C 306.377 34.259,305.783 34.104,305.417 34.004 C 305.050 33.904,304.593 33.798,304.401 33.770 C 304.209 33.741,303.967 33.666,303.863 33.602 C 303.759 33.538,303.463 33.458,303.206 33.426 C 302.948 33.393,302.252 33.248,301.660 33.103 C 301.068 32.958,300.321 32.799,300.000 32.749 C 299.679 32.700,299.229 32.588,299.000 32.501 C 298.771 32.414,297.308 32.080,295.750 31.760 C 294.192 31.440,292.654 31.097,292.333 30.997 C 292.012 30.898,291.188 30.707,290.500 30.573 C 289.813 30.439,289.175 30.305,289.083 30.275 C 288.936 30.226,288.228 30.073,287.500 29.932 C 287.362 29.905,287.137 29.841,287.000 29.788 C 286.862 29.736,286.450 29.637,286.083 29.570 C 285.717 29.502,285.342 29.430,285.250 29.411 C 285.158 29.391,284.671 29.289,284.167 29.185 C 283.077 28.959,282.818 28.901,281.833 28.657 C 281.421 28.555,280.917 28.439,280.713 28.400 C 280.509 28.361,280.134 28.249,279.879 28.152 C 279.625 28.056,279.397 27.988,279.372 28.001 C 279.290 28.046,278.116 27.802,275.833 27.265 C 274.966 27.061,272.262 26.464,271.279 26.259 C 270.855 26.171,270.055 25.976,269.500 25.825 C 269.179 25.737,268.692 25.635,268.417 25.597 C 268.142 25.559,267.917 25.516,267.917 25.501 C 267.917 25.470,267.624 25.403,266.917 25.270 C 266.642 25.219,265.814 25.026,265.078 24.843 C 263.770 24.517,262.625 24.294,262.208 24.283 C 262.094 24.280,262.000 24.211,262.000 24.129 C 262.000 24.047,261.938 24.019,261.863 24.065 C 261.787 24.112,261.281 24.034,260.738 23.892 C 260.194 23.749,259.613 23.606,259.445 23.573 C 259.277 23.541,259.004 23.471,258.837 23.418 C 258.671 23.365,258.321 23.289,258.059 23.249 C 257.797 23.209,256.777 22.996,255.792 22.776 C 254.806 22.556,254.000 22.413,254.000 22.458 C 254.000 22.504,253.906 22.466,253.792 22.375 C 253.677 22.285,253.283 22.151,252.917 22.078 C 252.550 22.006,252.175 21.926,252.083 21.902 C 251.992 21.877,251.579 21.785,251.167 21.696 C 250.754 21.608,249.854 21.410,249.167 21.255 C 248.479 21.101,247.729 20.941,247.500 20.901 C 247.046 20.820,246.182 20.634,245.917 20.559 C 245.464 20.433,244.211 20.130,243.917 20.076 C 243.528 20.004,242.068 19.695,241.583 19.582 C 241.400 19.539,240.950 19.434,240.583 19.348 C 240.217 19.262,239.204 19.035,238.333 18.844 C 237.463 18.652,236.501 18.414,236.197 18.315 C 235.893 18.215,235.606 18.172,235.559 18.219 C 235.511 18.266,235.235 18.205,234.944 18.084 C 234.652 17.962,233.927 17.776,233.332 17.669 C 232.737 17.563,231.500 17.297,230.583 17.079 C 229.667 16.861,228.729 16.643,228.500 16.594 C 228.271 16.544,227.746 16.424,227.333 16.326 C 226.921 16.228,226.404 16.152,226.184 16.157 C 225.964 16.163,225.691 16.089,225.576 15.994 C 225.462 15.899,225.304 15.838,225.226 15.858 C 225.147 15.878,224.783 15.808,224.417 15.702 C 223.173 15.345,221.564 15.000,221.142 15.000 C 220.911 15.000,220.670 14.948,220.606 14.884 C 220.543 14.820,220.399 14.751,220.287 14.729 C 220.040 14.682,217.686 14.152,216.750 13.933 C 216.567 13.890,215.517 13.658,214.417 13.416 C 213.317 13.174,212.079 12.902,211.667 12.811 C 211.254 12.719,210.767 12.616,210.583 12.582 C 210.400 12.548,209.950 12.439,209.583 12.339 C 209.217 12.240,208.392 12.054,207.750 11.925 C 207.108 11.796,205.796 11.498,204.833 11.263 C 203.289 10.885,202.192 10.645,201.083 10.444 C 200.900 10.411,200.637 10.344,200.500 10.296 C 200.362 10.248,199.875 10.126,199.417 10.026 C 198.236 9.767,195.979 9.259,194.417 8.901 C 193.683 8.733,193.046 8.588,193.000 8.580 C 192.673 8.519,191.533 8.262,190.334 7.977 C 189.555 7.792,188.730 7.611,188.500 7.576 C 187.645 7.443,185.569 6.981,185.167 6.834 C 184.938 6.750,184.487 6.644,184.167 6.598 C 183.846 6.552,183.096 6.388,182.500 6.233 C 181.904 6.078,181.267 5.936,181.083 5.917 C 180.900 5.899,180.637 5.838,180.500 5.782 C 180.362 5.726,180.025 5.651,179.750 5.616 C 179.475 5.581,179.137 5.510,179.000 5.457 C 178.862 5.404,178.188 5.238,177.500 5.087 C 176.813 4.936,176.063 4.767,175.833 4.710 C 175.604 4.654,175.229 4.588,175.000 4.564 C 174.771 4.540,174.171 4.407,173.667 4.268 C 172.597 3.973,171.851 3.797,171.500 3.756 C 171.250 3.727,168.603 3.116,167.500 2.834 C 167.179 2.751,166.354 2.565,165.667 2.420 C 164.979 2.274,163.554 1.965,162.500 1.733 C 161.446 1.501,160.433 1.279,160.250 1.240 C 159.898 1.165,159.701 1.119,158.500 0.827 C 158.087 0.727,157.487 0.615,157.167 0.578 C 156.846 0.541,155.758 0.404,154.750 0.273 C 152.698 0.007,145.257 -0.036,143.167 0.207 " stroke="none" fill-rule="evenodd"></path><path id="path1" d="" stroke="none" fill="#94d4dc" fill-rule="evenodd"></path></g></svg>