<svg xmlns="http://www.w3.org/2000/svg" viewBox="0 0 1190 1041"><g fill-rule="evenodd"><path d="M799 954.695971l-18.510725 10.75L762 976.195971v42.999999l18.489275 10.75L799 1040.69597l18.489275-10.75L836 1019.19597v-42.999999l-18.510725-10.75zM857.5 836.695971l-27.75 16-27.75 16v64l27.75 16 27.75 16 27.75-16 27.75-16v-64l-27.75-16zM715.5 214.695971l-44.760822 25.880419L626 266.456808v103.5l44.739178 25.880419L715.5 421.695971l44.739178-25.858744L805 369.956808v-103.5l-44.760822-25.880418zM721.5 441.695971l-44.760822 25.880419L632 493.456808v103.478325l44.739178 25.880419L721.5 648.695971l44.760822-25.880419L811 596.935133V493.456808l-44.739178-25.880418zM548.5 523.695971l-27.75 16.018738L493 555.690617v63.989292l27.75 16.018739 27.75 15.997323 27.75-15.997323L604 619.679909v-63.989292l-27.75-15.975908zM879.5 290.695971l-27.75 16-27.75 16v64l27.75 16 27.75 16 27.75-16 27.75-16v-64l-27.75-16zM832.5 138.695971l-27.75 16-27.75 16v64l27.75 16 27.75 16 27.75-16 27.75-16v-64l-27.75-16zM1122.51072 170.695971l-27.75536 16-27.75536 16v64l27.75536 16 27.75536 16 27.75537-16 27.73391-16v-64l-27.73391-16zM804.989278 48.6959707l-18.483917 10.75L768 70.1959707V113.195971l18.505361 10.75 18.483917 10.75 18.505361-10.75L842 113.195971V70.1959707l-18.505361-10.75zM754.5 800.695971l-12.75 7.369644-12.75 7.391067v29.478577l12.75 7.391068 12.75 7.369644 12.75-7.369644 12.75-7.391068v-29.478577l-12.75-7.391067zM1084.5 896.695971l-15.7392 9.247254L1053 915.190479v36.989018l15.7608 9.247254 15.7392 9.26922 15.7392-9.26922L1116 952.179497v-36.989018l-15.7608-9.247254zM603.5 668.695971l-15.760795 9.247254L572 687.190479V724.201462l15.739205 9.247254L603.5 742.695971l15.739205-9.247255L635 724.201462V687.190479l-15.760795-9.247254zM990.5 762.695971l-29.75 17.125-29.75 17.14665v68.47835l29.75 17.125 29.75 17.125 29.75-17.125 29.75-17.125v-68.47835l-29.75-17.14665zM841.510821 622.695971L796.75541 648.57639 752 674.456808v103.5l44.75541 25.858744 44.755411 25.880419 44.733769-25.880419L931 777.956808v-103.5l-44.75541-25.880418zM1090.5 578.695971l-44.76082 25.880419L1001 630.456808v103.5l44.73918 25.858744L1090.5 785.695971l44.76082-25.880419L1180 733.956808v-103.5l-44.73918-25.880418zM1164.5 342.695971l-44.76082 25.858743L1075 394.435133v103.5l44.73918 25.880419L1164.5 549.695971l44.76082-25.880419L1254 497.935133v-103.5l-44.73918-25.880419zM926.489179 412.695971L881.75541 438.57639 837 464.456808v103.5l44.75541 25.858744 44.733769 25.880419 44.755411-25.880419L1016 567.956808v-103.5l-44.75541-25.880418zM487.5 272.695971l-27.75 16-27.75 16v64l27.75 16 27.75 16 27.75-16 27.75-16v-64l-27.75-16zM416.5 586.695971l-27.75 16-27.75 16v64l27.75 16 27.75 16 27.75-16 27.75-16v-64l-27.75-16zM285.5 494.695971l-27.75 16-27.75 16v64l27.75 16 27.75 16 27.75-16 27.75-16v-64l-27.75-16zM404 494.695971l-18.510725 10.75L367 516.195971v43l18.489275 10.75L404 580.695971l18.510725-10.75L441 559.195971v-43l-18.489275-10.75zM303.489179 278.695971l-44.733769 25.858743L214 330.435133v103.5l44.75541 25.880419 44.733769 25.880419 44.755411-25.880419L393 433.935133v-103.5l-44.75541-25.880419zM121.5 353.695971l-27.75 15.997323L66 385.690617v64.010708l27.75 15.997323 27.75 15.997323 27.75-15.997323L177 449.701325v-64.010708l-27.75-15.997323zM148.5 480.695971l-27.75 16-27.75 16v64l27.75 16 27.75 16 27.75-16 27.75-16v-64l-27.75-16zM451.510821 54.6959707L406.75541 80.5736798 362 106.451389V209.940552l44.75541 25.87771 44.755411 25.877709 44.733769-25.877709L541 209.940552V106.451389l-44.75541-25.8777092zM660.5.6959707l-44.760822 25.8804188L571 52.4568084V155.956808l44.739178 25.858744L660.5 207.695971l44.760822-25.880419L750 155.956808V52.4568084l-44.739178-25.8804189zM918 17.6959707l-18.510725 10.75L881 39.1959707v43l18.489275 10.75L918 103.695971l18.510725-10.7500003L955 82.1959707v-43l-18.489275-10.75zM1037.5108 77.6959707l-15.7662 9.2472544L1006 96.1904795v36.9890175l15.7446 9.269219 15.7662 9.247255 15.7446-9.247255L1069 133.179497V96.1904795l-15.7446-9.2472544zM1019.48928 273.695971l-27.755367 16-27.733913 16v64l27.733913 16 27.755367 16 27.75536-16 27.75536-16v-64l-27.75536-16zM583.5 209.695971l-15.739205 9.247254L552 228.212444v36.989018l15.760795 9.247254L583.5 283.695971l15.739205-9.247255L615 265.201462v-36.989018l-15.760795-9.269219zM279.5 151.695971l-27.260741 15.638334L225 182.951304v62.510668l27.239259 15.616999 27.260741 15.617 27.239259-15.617L334 245.461972v-62.510668l-27.260741-15.616999zM153.5 221.695971l-27.260741 15.638334L99 252.951304v62.510668l27.239259 15.616999 27.260741 15.617 27.239259-15.617L208 315.461972v-62.510668l-27.260741-15.616999zM275.510692 76.6959707l-12.744654 7.3696441L250 91.4566824v29.4785766l12.766038 7.369644 12.744654 7.391068 12.744654-7.391068L301 120.935259V91.4566824l-12.744654-7.3910676zM555.510725 386.695971l-27.755363 16-27.755362 16v64l27.755362 16.021419 27.755363 15.978581 27.755362-15.978581L611 482.695971v-64l-27.733913-16zM962.510725 144.695971l-27.755363 16-27.755362 16v64l27.755362 16 27.755363 16 27.755362-16 27.733913-16v-64l-27.733913-16zM436.010722 411.695971l-18.505361 10.75L399 433.195971v43l18.505361 10.75 18.505361 10.75 18.483917-10.75L473 476.195971v-43l-18.505361-10.75zM25.4893082 480.695971l-12.7446541 7.369644L0 495.435259v29.5l12.7446541 7.369644 12.7446541 7.391068 12.7660377-7.391068L51 524.935259v-29.5l-12.7446541-7.369644z"/></g></svg>