<svg xmlns="http://www.w3.org/2000/svg" viewBox="0 0 36 36"><g fill="none" fill-rule="evenodd"><path d="M0 0h36v36H0z"/><path fill="currentColor" d="M32.9748 16.3488003h-1.8276V6.44639998c-.0105036-2.12038396-1.7268161-3.83669647-3.8472-3.84720011H3.8472C1.7268161 2.60970351.01050364 4.32601602 0 6.44639998V22.6224005c.01378527 2.117843 1.72933494 3.8301821 3.8472 3.8400001H5.916l-.6708 6.5256002-.0072.144c.00006179.729143.55249335 1.3396706 1.278 1.4124l.1452.0072c.37258331-.0005028.73013821-.1469711.996-.408l7.6992-7.6800002h2.8392v.6276c.0144379 1.6630763 1.3632738 3.0054943 3.0264 3.0120001h5.8296l4.1088 4.0368001c.5590337.5498939 1.4577071.5434518 2.0088-.0144.262819-.2658496.4102733-.6245687.4104-.9984l-.0216-.2472-.4896-2.7864001c1.6223095-.0538669 2.9145084-1.3756864 2.9316-2.9988001v-7.7340002c-.0137848-1.6628826-1.3622731-3.005487-3.0252-3.0120001zm-3.0132002 12.5567989v.0144l.0156.0888-1.3572-1.338c-.2662616-.2573098-.6221251-.4010322-.9924-.4008h-6.4056003l-.1836-.1704v-.6276h6.2616002c2.1181355-.0091686 3.8340638-1.7218854 3.8472002-3.8399999v-3.4319999H32.9748l.1836.1704v7.7339998l-.1836.1704h-1.6092001c-.7788346-.0000543-1.4127986.6264197-1.4220001 1.4052v.0084l.018.2172zM8.89320019 25.1856005l.0072-.1332c-.00048882-.7333832-.55864112-1.3461035-1.28880005-1.4148l-.10800001-.0072H3.84719997c-.2688646.0087353-.52937881-.0940697-.71982224-.2840586-.19044342-.1899889-.29387059-.4502567-.2857778-.7191414V6.44639996c-.00807519-.26898779.09531693-.52936497.28571929-.71954011.19040235-.19017514.4509028-.29325629.71988075-.28485992H27.300001c.2689779-.00839637.5294784.09468478.7198807.28485992.1904024.19017514.2937945.45055232.2857193.71954011V22.6224005c.0080752.2689877-.0953169.5293649-.2857193.7195401-.1904023.1901751-.4509028.2932563-.7198807.2848599H14.7600004c-.3748907.0001137-.7344101.1490144-.9996.414l-5.28000022 5.2632002.41280001-4.1184002z"/><path fill="currentColor" d="M23.6603992 16.7639997c1.2313741 0 2.2296-.9982259 2.2296-2.2296s-.9982259-2.2296-2.2296-2.2296c-1.2313742 0-2.2296001.9982259-2.2296001 2.2296.0006621 1.2310998.9985003 2.228938 2.2296001 2.2296zM15.5867995 16.7639997c1.2313741 0 2.2296001-.9982259 2.2296001-2.2296s-.998226-2.2296-2.2296001-2.2296-2.2296.9982259-2.2296 2.2296.9982259 2.2296 2.2296 2.2296zM7.48679985 12.3047974c-1.23090351.0019903-2.22732319 1.0010946-2.22600006 2.231999.00132576 1.2309044.99989319 2.2278622 2.23079812 2.2272011 1.23090494-.0006618 2.22840198-.9986921 2.22840198-2.2295972 0-.5919509-.23539696-1.1596047-.65430701-1.5778395-.41891006-.4182347-.98694284-.6527163-1.57889303-.6517634z"/></g></svg>