<svg viewBox="0 0 199 416" xmlns="http://www.w3.org/2000/svg"><g fill-rule="evenodd"><path d="M149.332 72.558l1.296 2.419-1.296 2.418h-2.648l-1.296-2.418 1.296-2.419zM149.332 96.744l1.296 2.419-1.296 2.418h-2.648l-1.296-2.418 1.296-2.419zM149.332 120.93l1.296 2.419-1.296 2.418h-2.648l-1.296-2.418 1.296-2.419zM149.332 145.116l1.296 2.419-1.296 2.418h-2.648l-1.296-2.418 1.296-2.419zM149.332 169.302l1.296 2.419-1.296 2.419h-2.648l-1.296-2.42 1.296-2.418zM149.332 193.488l1.296 2.419-1.296 2.419h-2.648l-1.296-2.419 1.296-2.419zM149.332 48.372l1.296 2.419-1.296 2.418h-2.648l-1.296-2.418 1.296-2.419zM149.332 24.186l1.296 2.419-1.296 2.418h-2.648l-1.296-2.418 1.296-2.419zM149.332 0l1.296 2.419-1.296 2.418h-2.648l-1.296-2.418L146.684 0zM149.332 290.233l1.296 2.418-1.296 2.419h-2.648l-1.296-2.419 1.296-2.418zM149.332 314.419l1.296 2.418-1.296 2.419h-2.648l-1.296-2.419 1.296-2.418zM149.332 338.605l1.296 2.418-1.296 2.419h-2.648l-1.296-2.419 1.296-2.418zM149.332 362.79l1.296 2.42-1.296 2.418h-2.648l-1.296-2.419 1.296-2.418zM149.332 386.977l1.296 2.418-1.296 2.419h-2.648l-1.296-2.419 1.296-2.418zM149.332 411.163l1.296 2.418-1.296 2.419h-2.648l-1.296-2.419 1.296-2.418zM149.332 266.047l1.296 2.418-1.296 2.419h-2.648l-1.296-2.419 1.296-2.418zM149.332 241.86l1.296 2.42-1.296 2.418h-2.648l-1.296-2.419 1.296-2.419zM149.332 217.674l1.296 2.419-1.296 2.419h-2.648l-1.296-2.419 1.296-2.419z"/><g><path d="M173.518 72.558l1.296 2.419-1.296 2.418h-2.648l-1.296-2.418 1.296-2.419zM173.518 96.744l1.296 2.419-1.296 2.418h-2.648l-1.296-2.418 1.296-2.419zM173.518 120.93l1.296 2.419-1.296 2.418h-2.648l-1.296-2.418 1.296-2.419zM173.518 145.116l1.296 2.419-1.296 2.418h-2.648l-1.296-2.418 1.296-2.419zM173.518 169.302l1.296 2.419-1.296 2.419h-2.648l-1.296-2.42 1.296-2.418zM173.518 193.488l1.296 2.419-1.296 2.419h-2.648l-1.296-2.419 1.296-2.419zM173.518 48.372l1.296 2.419-1.296 2.418h-2.648l-1.296-2.418 1.296-2.419zM173.518 24.186l1.296 2.419-1.296 2.418h-2.648l-1.296-2.418 1.296-2.419zM173.518 0l1.296 2.419-1.296 2.418h-2.648l-1.296-2.418L170.87 0zM173.518 290.233l1.296 2.418-1.296 2.419h-2.648l-1.296-2.419 1.296-2.418zM173.518 314.419l1.296 2.418-1.296 2.419h-2.648l-1.296-2.419 1.296-2.418zM173.518 338.605l1.296 2.418-1.296 2.419h-2.648l-1.296-2.419 1.296-2.418zM173.518 362.79l1.296 2.42-1.296 2.418h-2.648l-1.296-2.419 1.296-2.418zM173.518 386.977l1.296 2.418-1.296 2.419h-2.648l-1.296-2.419 1.296-2.418zM173.518 411.163l1.296 2.418-1.296 2.419h-2.648l-1.296-2.419 1.296-2.418zM173.518 266.047l1.296 2.418-1.296 2.419h-2.648l-1.296-2.419 1.296-2.418zM173.518 241.86l1.296 2.42-1.296 2.418h-2.648l-1.296-2.419 1.296-2.419zM173.518 217.674l1.296 2.419-1.296 2.419h-2.648l-1.296-2.419 1.296-2.419z"/></g><g><path d="M197.704 72.558L199 74.977l-1.296 2.418h-2.648l-1.296-2.418 1.296-2.419zM197.704 96.744L199 99.163l-1.296 2.418h-2.648l-1.296-2.418 1.296-2.419zM197.704 120.93L199 123.35l-1.296 2.418h-2.648l-1.296-2.418 1.296-2.419zM197.704 145.116l1.296 2.419-1.296 2.418h-2.648l-1.296-2.418 1.296-2.419zM197.704 169.302l1.296 2.419-1.296 2.419h-2.648l-1.296-2.42 1.296-2.418zM197.704 193.488l1.296 2.419-1.296 2.419h-2.648l-1.296-2.419 1.296-2.419zM197.704 48.372L199 50.791l-1.296 2.418h-2.648l-1.296-2.418 1.296-2.419zM197.704 24.186L199 26.605l-1.296 2.418h-2.648l-1.296-2.418 1.296-2.419zM197.704 0L199 2.419l-1.296 2.418h-2.648L193.76 2.42 195.056 0zM197.704 290.233L199 292.65l-1.296 2.419h-2.648l-1.296-2.419 1.296-2.418zM197.704 314.419l1.296 2.418-1.296 2.419h-2.648l-1.296-2.419 1.296-2.418zM197.704 338.605l1.296 2.418-1.296 2.419h-2.648l-1.296-2.419 1.296-2.418zM197.704 362.79l1.296 2.42-1.296 2.418h-2.648l-1.296-2.419 1.296-2.418zM197.704 386.977l1.296 2.418-1.296 2.419h-2.648l-1.296-2.419 1.296-2.418zM197.704 411.163L199 413.58 197.704 416h-2.648l-1.296-2.419 1.296-2.418zM197.704 266.047l1.296 2.418-1.296 2.419h-2.648l-1.296-2.419 1.296-2.418zM197.704 241.86l1.296 2.42-1.296 2.418h-2.648l-1.296-2.419 1.296-2.419zM197.704 217.674l1.296 2.419-1.296 2.419h-2.648l-1.296-2.419 1.296-2.419z"/></g><g><path d="M125.146 72.558l1.296 2.419-1.296 2.418h-2.648l-1.296-2.418 1.296-2.419zM125.146 96.744l1.296 2.419-1.296 2.418h-2.648l-1.296-2.418 1.296-2.419zM125.146 120.93l1.296 2.419-1.296 2.418h-2.648l-1.296-2.418 1.296-2.419zM125.146 145.116l1.296 2.419-1.296 2.418h-2.648l-1.296-2.418 1.296-2.419zM125.146 169.302l1.296 2.419-1.296 2.419h-2.648l-1.296-2.42 1.296-2.418zM125.146 193.488l1.296 2.419-1.296 2.419h-2.648l-1.296-2.419 1.296-2.419zM125.146 48.372l1.296 2.419-1.296 2.418h-2.648l-1.296-2.418 1.296-2.419zM125.146 24.186l1.296 2.419-1.296 2.418h-2.648l-1.296-2.418 1.296-2.419zM125.146 0l1.296 2.419-1.296 2.418h-2.648l-1.296-2.418L122.498 0zM125.146 290.233l1.296 2.418-1.296 2.419h-2.648l-1.296-2.419 1.296-2.418zM125.146 314.419l1.296 2.418-1.296 2.419h-2.648l-1.296-2.419 1.296-2.418zM125.146 338.605l1.296 2.418-1.296 2.419h-2.648l-1.296-2.419 1.296-2.418zM125.146 362.79l1.296 2.42-1.296 2.418h-2.648l-1.296-2.419 1.296-2.418zM125.146 386.977l1.296 2.418-1.296 2.419h-2.648l-1.296-2.419 1.296-2.418zM125.146 411.163l1.296 2.418-1.296 2.419h-2.648l-1.296-2.419 1.296-2.418zM125.146 266.047l1.296 2.418-1.296 2.419h-2.648l-1.296-2.419 1.296-2.418zM125.146 241.86l1.296 2.42-1.296 2.418h-2.648l-1.296-2.419 1.296-2.419zM125.146 217.674l1.296 2.419-1.296 2.419h-2.648l-1.296-2.419 1.296-2.419z"/></g><g><path d="M100.96 72.558l1.296 2.419-1.296 2.418H98.31l-1.295-2.418 1.295-2.419zM100.96 96.744l1.296 2.419-1.296 2.418H98.31l-1.295-2.418 1.295-2.419zM100.96 120.93l1.296 2.419-1.296 2.418H98.31l-1.295-2.418 1.295-2.419zM100.96 145.116l1.296 2.419-1.296 2.418H98.31l-1.295-2.418 1.295-2.419zM100.96 169.302l1.296 2.419-1.296 2.419H98.31l-1.295-2.42 1.295-2.418zM100.96 193.488l1.296 2.419-1.296 2.419H98.31l-1.295-2.419 1.295-2.419zM100.96 48.372l1.296 2.419-1.296 2.418H98.31l-1.295-2.418 1.295-2.419zM100.96 24.186l1.296 2.419-1.296 2.418H98.31l-1.295-2.418 1.295-2.419zM100.96 0l1.296 2.419-1.296 2.418H98.31L97.016 2.42 98.31 0zM100.96 290.233l1.296 2.418-1.296 2.419H98.31l-1.295-2.419 1.295-2.418zM100.96 314.419l1.296 2.418-1.296 2.419H98.31l-1.295-2.419 1.295-2.418zM100.96 338.605l1.296 2.418-1.296 2.419H98.31l-1.295-2.419 1.295-2.418zM100.96 362.79l1.296 2.42-1.296 2.418H98.31l-1.295-2.419 1.295-2.418zM100.96 386.977l1.296 2.418-1.296 2.419H98.31l-1.295-2.419 1.295-2.418zM100.96 411.163l1.296 2.418L100.96 416H98.31l-1.295-2.419 1.295-2.418zM100.96 266.047l1.296 2.418-1.296 2.419H98.31l-1.295-2.419 1.295-2.418zM100.96 241.86l1.296 2.42-1.296 2.418H98.31l-1.295-2.419 1.295-2.419zM100.96 217.674l1.296 2.419-1.296 2.419H98.31l-1.295-2.419 1.295-2.419z"/></g><g><path d="M76.774 72.558l1.296 2.419-1.296 2.418h-2.649l-1.296-2.418 1.296-2.419zM76.774 96.744l1.296 2.419-1.296 2.418h-2.649l-1.296-2.418 1.296-2.419zM76.774 120.93l1.296 2.419-1.296 2.418h-2.649l-1.296-2.418 1.296-2.419zM76.774 145.116l1.296 2.419-1.296 2.418h-2.649l-1.296-2.418 1.296-2.419zM76.774 169.302l1.296 2.419-1.296 2.419h-2.649l-1.296-2.42 1.296-2.418zM76.774 193.488l1.296 2.419-1.296 2.419h-2.649l-1.296-2.419 1.296-2.419zM76.774 48.372l1.296 2.419-1.296 2.418h-2.649l-1.296-2.418 1.296-2.419zM76.774 24.186l1.296 2.419-1.296 2.418h-2.649l-1.296-2.418 1.296-2.419zM76.774 0l1.296 2.419-1.296 2.418h-2.649L72.83 2.42 74.125 0zM76.774 290.233l1.296 2.418-1.296 2.419h-2.649l-1.296-2.419 1.296-2.418zM76.774 314.419l1.296 2.418-1.296 2.419h-2.649l-1.296-2.419 1.296-2.418zM76.774 338.605l1.296 2.418-1.296 2.419h-2.649l-1.296-2.419 1.296-2.418zM76.774 362.79l1.296 2.42-1.296 2.418h-2.649l-1.296-2.419 1.296-2.418zM76.774 386.977l1.296 2.418-1.296 2.419h-2.649l-1.296-2.419 1.296-2.418zM76.774 411.163l1.296 2.418L76.774 416h-2.649l-1.296-2.419 1.296-2.418zM76.774 266.047l1.296 2.418-1.296 2.419h-2.649l-1.296-2.419 1.296-2.418zM76.774 241.86l1.296 2.42-1.296 2.418h-2.649l-1.296-2.419 1.296-2.419zM76.774 217.674l1.296 2.419-1.296 2.419h-2.649l-1.296-2.419 1.296-2.419z"/></g><g><path d="M52.588 72.558l1.296 2.419-1.296 2.418h-2.649l-1.296-2.418 1.296-2.419zM52.588 96.744l1.296 2.419-1.296 2.418h-2.649l-1.296-2.418 1.296-2.419zM52.588 120.93l1.296 2.419-1.296 2.418h-2.649l-1.296-2.418 1.296-2.419zM52.588 145.116l1.296 2.419-1.296 2.418h-2.649l-1.296-2.418 1.296-2.419zM52.588 169.302l1.296 2.419-1.296 2.419h-2.649l-1.296-2.42 1.296-2.418zM52.588 193.488l1.296 2.419-1.296 2.419h-2.649l-1.296-2.419 1.296-2.419zM52.588 48.372l1.296 2.419-1.296 2.418h-2.649l-1.296-2.418 1.296-2.419zM52.588 24.186l1.296 2.419-1.296 2.418h-2.649l-1.296-2.418 1.296-2.419zM52.588 0l1.296 2.419-1.296 2.418h-2.649L48.643 2.42 49.94 0zM52.588 290.233l1.296 2.418-1.296 2.419h-2.649l-1.296-2.419 1.296-2.418zM52.588 314.419l1.296 2.418-1.296 2.419h-2.649l-1.296-2.419 1.296-2.418zM52.588 338.605l1.296 2.418-1.296 2.419h-2.649l-1.296-2.419 1.296-2.418zM52.588 362.79l1.296 2.42-1.296 2.418h-2.649l-1.296-2.419 1.296-2.418zM52.588 386.977l1.296 2.418-1.296 2.419h-2.649l-1.296-2.419 1.296-2.418zM52.588 411.163l1.296 2.418L52.588 416h-2.649l-1.296-2.419 1.296-2.418zM52.588 266.047l1.296 2.418-1.296 2.419h-2.649l-1.296-2.419 1.296-2.418zM52.588 241.86l1.296 2.42-1.296 2.418h-2.649l-1.296-2.419 1.296-2.419zM52.588 217.674l1.296 2.419-1.296 2.419h-2.649l-1.296-2.419 1.296-2.419z"/></g><g><path d="M28.402 72.558l1.296 2.419-1.296 2.418h-2.649l-1.296-2.418 1.296-2.419zM28.402 96.744l1.296 2.419-1.296 2.418h-2.649l-1.296-2.418 1.296-2.419zM28.402 120.93l1.296 2.419-1.296 2.418h-2.649l-1.296-2.418 1.296-2.419zM28.402 145.116l1.296 2.419-1.296 2.418h-2.649l-1.296-2.418 1.296-2.419zM28.402 169.302l1.296 2.419-1.296 2.419h-2.649l-1.296-2.42 1.296-2.418zM28.402 193.488l1.296 2.419-1.296 2.419h-2.649l-1.296-2.419 1.296-2.419zM28.402 48.372l1.296 2.419-1.296 2.418h-2.649l-1.296-2.418 1.296-2.419zM28.402 24.186l1.296 2.419-1.296 2.418h-2.649l-1.296-2.418 1.296-2.419zM28.402 0l1.296 2.419-1.296 2.418h-2.649L24.457 2.42 25.753 0zM28.402 290.233l1.296 2.418-1.296 2.419h-2.649l-1.296-2.419 1.296-2.418zM28.402 314.419l1.296 2.418-1.296 2.419h-2.649l-1.296-2.419 1.296-2.418zM28.402 338.605l1.296 2.418-1.296 2.419h-2.649l-1.296-2.419 1.296-2.418zM28.402 362.79l1.296 2.42-1.296 2.418h-2.649l-1.296-2.419 1.296-2.418zM28.402 386.977l1.296 2.418-1.296 2.419h-2.649l-1.296-2.419 1.296-2.418zM28.402 411.163l1.296 2.418L28.402 416h-2.649l-1.296-2.419 1.296-2.418zM28.402 266.047l1.296 2.418-1.296 2.419h-2.649l-1.296-2.419 1.296-2.418zM28.402 241.86l1.296 2.42-1.296 2.418h-2.649l-1.296-2.419 1.296-2.419zM28.402 217.674l1.296 2.419-1.296 2.419h-2.649l-1.296-2.419 1.296-2.419z"/></g><g><path d="M4.216 72.558l1.296 2.419-1.296 2.418H1.567L.271 74.977l1.296-2.419zM4.216 96.744l1.296 2.419-1.296 2.418H1.567L.271 99.163l1.296-2.419zM4.216 120.93l1.296 2.419-1.296 2.418H1.567L.271 123.35l1.296-2.419zM4.216 145.116l1.296 2.419-1.296 2.418H1.567l-1.296-2.418 1.296-2.419zM4.216 169.302l1.296 2.419-1.296 2.419H1.567l-1.296-2.42 1.296-2.418zM4.216 193.488l1.296 2.419-1.296 2.419H1.567l-1.296-2.419 1.296-2.419zM4.216 48.372l1.296 2.419-1.296 2.418H1.567L.271 50.791l1.296-2.419zM4.216 24.186l1.296 2.419-1.296 2.418H1.567L.271 26.605l1.296-2.419zM4.216 0l1.296 2.419-1.296 2.418H1.567L.271 2.42 1.567 0zM4.216 290.233l1.296 2.418-1.296 2.419H1.567L.271 292.65l1.296-2.418zM4.216 314.419l1.296 2.418-1.296 2.419H1.567l-1.296-2.419 1.296-2.418zM4.216 338.605l1.296 2.418-1.296 2.419H1.567l-1.296-2.419 1.296-2.418zM4.216 362.79l1.296 2.42-1.296 2.418H1.567l-1.296-2.419 1.296-2.418zM4.216 386.977l1.296 2.418-1.296 2.419H1.567l-1.296-2.419 1.296-2.418zM4.216 411.163l1.296 2.418L4.216 416H1.567l-1.296-2.419 1.296-2.418zM4.216 266.047l1.296 2.418-1.296 2.419H1.567l-1.296-2.419 1.296-2.418zM4.216 241.86l1.296 2.42-1.296 2.418H1.567l-1.296-2.419 1.296-2.419zM4.216 217.674l1.296 2.419-1.296 2.419H1.567l-1.296-2.419 1.296-2.419z"/></g></g></svg>