<svg viewBox="0.501 0.832 15.999 16.336" xmlns="http://www.w3.org/2000/svg"><path d="M7.547 9.664l-.807.592a3.778 3.778 0 0 1 .307-4.826l3.374-3.512A3.484 3.484 0 0 1 12.943.832c.95 0 1.86.392 2.522 1.086 1.378 1.444 1.378 3.743.01 5.177l-2.257 2.497-.742-.67 2.266-2.507a2.772 2.772 0 0 0 0-3.807 2.484 2.484 0 0 0-1.8-.776c-.675 0-1.324.28-1.799.778L7.77 6.122a2.777 2.777 0 0 0-.223 3.542z"/><path d="M9.116 8.194l.725-.688a3.772 3.772 0 0 1-.002 5.173l-3.26 3.403a3.484 3.484 0 0 1-2.522 1.086c-.95 0-1.86-.392-2.522-1.086a3.77 3.77 0 0 1-.004-5.183l2.171-2.333.732.681-2.176 2.338a2.772 2.772 0 0 0 0 3.807 2.484 2.484 0 0 0 1.8.776c.675 0 1.324-.28 1.798-.777l3.26-3.402a2.772 2.772 0 0 0 0-3.795z"/></svg>