<svg xmlns="http://www.w3.org/2000/svg" viewBox="0 0 180 48"><g fill-rule="evenodd"><path d="M36.939 44.016l-.863.498-.862.498v1.992l.862.498.863.498.862-.498.863-.498v-1.992l-.863-.498zM39.628 38.675l-1.294.747-1.294.747v2.988l1.294.747 1.294.747 1.294-.747 1.294-.747v-2.988l-1.294-.747zM33.083 9.945l-2.068 1.194-2.067 1.194v4.775l2.067 1.194 2.068 1.193 2.067-1.193 2.068-1.194v-4.775l-2.068-1.194zM33.387 20.347l-2.068 1.194-2.067 1.194v4.774l2.067 1.194 2.068 1.194 2.068-1.194 2.067-1.194v-4.774l-2.067-1.194zM25.37 24.163l-1.294.748-1.294.746v2.988l1.294.748 1.294.747 1.294-.747 1.294-.748v-2.988l-1.294-.746zM40.694 13.337l-1.294.747-1.294.747v2.988l1.294.747 1.294.747 1.294-.747 1.294-.747v-2.988l-1.294-.747zM38.512 6.386l-1.294.747-1.294.747v2.988l1.294.747 1.294.747 1.294-.747 1.294-.747V7.88l-1.294-.747zM51.958 7.857l-1.294.747-1.294.747v2.988l1.294.747 1.294.747 1.294-.747 1.293-.747V9.351l-1.293-.747zM37.243 2.216l-.862.498-.863.498v1.992l.863.498.862.498.863-.498.863-.498V3.212l-.863-.498zM34.922 37.053l-.596.344-.596.345v1.376l.596.345.596.344.596-.344.596-.345v-1.376l-.596-.345zM50.144 41.435l-.729.421-.73.421v1.684l.73.421.729.422.729-.422.73-.421v-1.684l-.73-.421zM27.895 30.913l-.73.421-.729.421v1.685l.729.421.73.421.729-.421.73-.421v-1.685l-.73-.421zM45.768 35.242l-1.37.791-1.37.792V39.988l1.37.791 1.37.791 1.37-.791 1.37-.791V36.825l-1.37-.792zM39.02 28.668l-2.068 1.194-2.068 1.194v4.775l2.068 1.193 2.068 1.194 2.067-1.194 2.068-1.193v-4.775l-2.068-1.194zM50.385 26.74l-2.068 1.194-2.067 1.194v4.775l2.067 1.193 2.068 1.194 2.068-1.194 2.067-1.193v-4.775l-2.067-1.194zM53.937 15.933l-2.068 1.193-2.067 1.194v4.775l2.067 1.194 2.068 1.194 2.068-1.194 2.067-1.194V18.32l-2.067-1.194zM42.926 19.129l-2.067 1.194-2.068 1.194v4.775l2.068 1.193 2.067 1.194 2.068-1.194 2.068-1.193v-4.775l-2.068-1.194zM22.554 12.492l-1.294.747-1.294.747v2.988l1.294.747 1.294.747 1.294-.747 1.294-.747v-2.988l-1.294-.747zM19.231 27.056l-1.294.747-1.294.747v2.988l1.294.747 1.294.747 1.294-.747 1.294-.747V28.55l-1.294-.747zM13.231 22.749l-1.294.747-1.294.747v2.988l1.294.747 1.294.747 1.294-.747 1.294-.747v-2.988l-1.294-.747zM18.622 22.731l-.863.498-.862.498v1.992l.862.498.863.498.863-.498.862-.498v-1.992l-.862-.498zM14.055 12.787l-2.067 1.193-2.068 1.194v4.775l2.068 1.194 2.067 1.194 2.068-1.194 2.068-1.194v-4.775l-2.068-1.194zM5.582 16.349l-1.294.747-1.294.747v2.989l1.294.747 1.294.747 1.294-.747 1.294-.747v-2.989l-1.294-.747zM6.952 22.231l-1.294.747-1.294.747v2.988l1.294.747 1.294.747 1.294-.747 1.294-.747v-2.988l-1.294-.747zM20.855 2.486L18.787 3.68l-2.068 1.194v4.775l2.068 1.194 2.068 1.194 2.067-1.194 2.068-1.194V4.874L22.922 3.68zM30.495 0l-2.068 1.194-2.067 1.194v4.775l2.067 1.193 2.068 1.194 2.068-1.194 2.067-1.193V2.388l-2.067-1.194zM42.444.822l-.863.498-.862.498V3.81l.862.498.863.498.863-.498.862-.498V1.818l-.862-.498zM47.988 3.529l-.73.421-.729.421v1.684l.729.422.73.421.729-.421.729-.422V4.371l-.729-.421zM47.188 12.627l-1.294.747-1.293.747v2.988l1.293.747 1.294.747 1.294-.747 1.294-.747v-2.988l-1.294-.747zM26.994 9.668l-.729.421-.73.422v1.684l.73.421.729.421.729-.421.73-.421v-1.684l-.73-.422zM12.99 7.002l-1.269.733-1.268.732v2.93l1.268.732 1.269.732 1.268-.732 1.269-.732v-2.93l-1.269-.732zM7.155 10.148l-1.269.733-1.268.732v2.93l1.268.732 1.269.732 1.268-.732 1.269-.732v-2.93l-1.269-.732zM57.286 33.874l-.597.345-.596.344v1.376l.596.345.597.344.596-.344.596-.345v-1.376l-.596-.344zM12.787 3.481l-.596.344-.597.345v1.376l.597.344.596.345.596-.345.596-.344V4.17l-.596-.345zM25.624 17.751l-1.294.747-1.294.747v2.988l1.294.748 1.294.746 1.294-.746 1.293-.748v-2.988l-1.293-.747zM44.55 6.69l-1.294.747-1.294.747v2.988l1.294.747 1.294.747 1.294-.747 1.293-.747V8.184l-1.293-.747zM20.246 19.065l-.863.498-.863.498v1.992l.863.498.863.498.862-.498.863-.498v-1.992l-.863-.498zM1.192 22.28l-.596.344-.596.344V24.345l.596.344.596.345.597-.345.596-.344V22.968l-.596-.344zM87.7 30.378h3.386V12.446h-3.873l-5.619 7.709-5.618-7.709h-3.9v17.932h3.387V17.341l5.721 7.812h.667l5.849-7.786v13.011zm9.466-12.7v12.7h-3.129v-12.7h3.129zm-3.412-3.514c.0233506 1.0036024.843626 1.8050145 1.8475 1.8050145s1.8241494-.8014121 1.8475-1.8050145c-.0233506-1.0036024-.843626-1.8050145-1.8475-1.8050145s-1.8241494.8014121-1.8475 1.8050145zm18.677 16.213v-6.643c0-3.977-2.386-6.208-5.362-6.208-1.58969.0259993-3.096278.7147666-4.156 1.9l-.2-1.719h-2.8v12.671h3.105v-6.465c-.058209-.902387.2534-1.789594.863098-2.457395.609699-.667801 1.464957-1.0586599 2.368902-1.082605 2 0 3.053 1.463 3.053 3.387v6.618l3.128-.001zm8.825-10.03c2.04732 0 3.707 1.6596804 3.707 3.707s-1.65968 3.707-3.707 3.707c-.978548.0112429-1.918454-.3813947-2.59822-1.0853837-.679765-.7039891-1.039265-1.6570616-.99378-2.6346163-.058073-.9784905.298138-1.9362772.981483-2.6390263.683345-.7027492 1.630784-1.0856327 2.610517-1.0549737zm3.874-7.9v7c-.744-1.308-2.822-2.026-4.156-2.026-3.694 0-6.44 2.258-6.44 6.619-.119991 1.7714635.524387 3.5095057 1.77018 4.7746062 1.245793 1.2651006 2.973721 1.936129 4.74682 1.8433938 1.622043.0923832 3.172519-.6777235 4.079-2.026l.2 1.744h2.925v-17.93l-3.125.001zm12.853 15.213c-.959591.0238348-1.886991-.3468091-2.565828-1.0254575-.678837-.6786484-1.04974-1.6059445-1.026172-2.5655425 0-1.9838068 1.608193-3.592 3.592-3.592s3.592 1.6081932 3.592 3.592c.023278.9595139-.347717 1.8866401-1.02649 2.5652241-.678773.6785839-1.606003 1.049321-2.56551 1.0257759zm-3.874 8v-6.77c.9 1.386 2.873 1.8 4.207 1.8 4.054 0 6.389-2.924 6.389-6.618.081795-1.7569732-.571358-3.468722-1.802775-4.7246115-1.231417-1.2558894-2.929983-1.9425975-4.688225-1.8953885-1.612814-.0216619-3.137956.7323536-4.1 2.027l-.205-1.744h-2.925v17.928l3.125-.003zm18.856-18.189c-1.761978-.0603228-3.469308.6167946-4.710999 1.8683563-1.241692 1.2515616-1.905272 2.9641985-1.831001 4.7256437-.02922 2.3703173 1.218586 4.5731922 3.266609 5.7668663 2.048024 1.193674 4.579758 1.193674 6.627782 0 2.048023-1.1936741 3.295829-3.396549 3.266609-5.7668663.05652-1.7699409-.623522-3.484059-1.878064-4.7338627-1.254542-1.2498037-2.971222-1.9233541-4.740936-1.8601373zm.026 2.848c.954733.0349455 1.855706.4507875 2.5017 1.1546542.645994.7038668.983197 1.6371249.9363 2.5913458.10359 1.2939335-.528097 2.536447-1.634581 3.2151858-1.106485.6787388-2.500353.6787388-3.606838 0-1.106484-.6787388-1.738171-1.9212523-1.634581-3.2151858-.074913-.9611354.252699-1.9102148.904561-2.620475.651862-.7102601 1.569419-1.1179009 2.533439-1.125525zm14.7-2.848c-1.761978-.0603228-3.469308.6167946-4.710999 1.8683563-1.241692 1.2515616-1.905272 2.9641985-1.831001 4.7256437-.02922 2.3703173 1.218586 4.5731922 3.266609 5.7668663 2.048024 1.193674 4.579758 1.193674 6.627782 0 2.048023-1.1936741 3.295829-3.396549 3.266609-5.7668663.054727-1.7694276-.625889-3.4824895-1.880028-4.7318914-1.254139-1.2494019-2.969764-1.9235313-4.738972-1.8621086zm.025 2.848c.954827.0346778 1.855961.4504395 2.502012 1.154368.646051.7039285.98316 1.6373408.935988 2.591632.10359 1.2939335-.528097 2.536447-1.634581 3.2151858-1.106485.6787388-2.500353.6787388-3.606838 0-1.106484-.6787388-1.738171-1.9212523-1.634581-3.2151858-.074913-.9611354.252699-1.9102148.904561-2.620475.651862-.7102601 1.569419-1.1179009 2.533439-1.125525zm8.748-7.876v17.935h3.1V12.446l-3.1-.003z"/></g></svg>