<svg xmlns="http://www.w3.org/2000/svg" xmlns:xlink="http://www.w3.org/1999/xlink" viewBox="0 0 162 186"><defs><path id="a" d="M45.8333333 4.16666667c1.1505933 0 2.0833334.9327401 2.0833334 2.08333333v37.5c0 1.1505932-.9327401 2.0833333-2.0833334 2.0833333H37.5c-1.1505932 0-2.0833333-.9327401-2.0833333-2.0833333V6.25c0-1.15059323.9327401-2.08333333 2.0833333-2.08333333h8.3333333zM29.1666667 14.5833333c1.1505932 0 2.0833333.9327401 2.0833333 2.0833334V43.75c0 1.1505932-.9327401 2.0833333-2.0833333 2.0833333h-8.3333334C19.6827401 45.8333333 18.75 44.9005932 18.75 43.75V16.6666667c0-1.1505933.9327401-2.0833334 2.0833333-2.0833334h8.3333334zM12.5 25c1.1505932 0 2.0833333.9327401 2.0833333 2.0833333V43.75c0 1.1505932-.9327401 2.0833333-2.0833333 2.0833333H4.16666667c-1.15059323 0-2.08333334-.9327401-2.08333334-2.0833333V27.0833333C2.08333333 25.9327401 3.01607344 25 4.16666667 25H12.5zM43.75 8.33333333h-4.1666667V41.6666667H43.75V8.33333333zM27.0833333 18.75h-4.1666666v22.9166667h4.1666666V18.75zM10.4166667 29.1666667H6.25v12.5h4.1666667v-12.5z"/></defs><g fill="none" fill-rule="evenodd"><path stroke="#DDE0E0" d="M81 1L41 24 1 47v92l40 23 40 23 40-23 40-23V47l-40-23z"/><g transform="translate(56 68)"><path d="M0 0h50v50H0z"/><use fill="#75BCA8" xlink:href="#a"/></g></g></svg>