<svg xmlns="http://www.w3.org/2000/svg" xmlns:xlink="http://www.w3.org/1999/xlink" viewBox="0 0 36 36"><defs><path id="a" d="M33 3c.8284271 0 1.5.67157288 1.5 1.5v27c0 .8284271-.6715729 1.5-1.5 1.5h-6c-.8284271 0-1.5-.6715729-1.5-1.5v-27c0-.82842712.6715729-1.5 1.5-1.5h6zm-12 7.5c.8284271 0 1.5.6715729 1.5 1.5v19.5c0 .8284271-.6715729 1.5-1.5 1.5h-6c-.8284271 0-1.5-.6715729-1.5-1.5V12c0-.8284271.6715729-1.5 1.5-1.5h6zM9 18c.82842712 0 1.5.6715729 1.5 1.5v12c0 .8284271-.67157288 1.5-1.5 1.5H3c-.82842712 0-1.5-.6715729-1.5-1.5v-12c0-.8284271.67157288-1.5 1.5-1.5h6zM31.5 6h-3v24h3V6zm-12 7.5h-3V30h3V13.5zM7.5 21h-3v9h3v-9z"/></defs><g fill="none" fill-rule="evenodd"><path d="M0 0h36v36H0z"/><use fill="currentColor" xlink:href="#a"/></g></svg>