<svg xmlns="http://www.w3.org/2000/svg" xmlns:xlink="http://www.w3.org/1999/xlink" viewBox="0 0 36 36"><defs><path id="a" d="M22.3499993.6c.8008129 0 1.45.6491871 1.45 1.44999996L23.799 4.95H26.7c2.4024387 0 4.35 1.94756134 4.35 4.35l-.001 2.9 2.9010006 4e-7c.7537062 0 1.3731004.5750585 1.4433623 1.3103553l.0066377.1396447c0 .8008129-.6491871 1.4500001-1.45 1.4500001L31.049 15.1v4.349l2.9010006.0009996c.7537062 0 1.3731004.5750585 1.4433623 1.3103554l.0066377.1396447c0 .8008129-.6491871 1.45-1.45 1.45L31.049 22.349l.001 4.351c0 2.4024387-1.9475613 4.35-4.35 4.35l-2.901-.001.0009993 2.9010006c0 .7537062-.5750585 1.3731004-1.3103553 1.4433623l-.1396447.0066377c-.8008129 0-1.4500001-.6491871-1.4500001-1.45L20.899 31.049H15.1l5e-7 2.9010006c0 .7537062-.5750585 1.3731004-1.3103554 1.4433623l-.1396447.0066377c-.8008129 0-1.45-.6491871-1.45-1.45L12.2 31.049l-2.9.001c-2.40243866 0-4.35-1.9475613-4.35-4.35v-4.351l-2.90000004.0009997c-.75370623 0-1.37310035-.5750585-1.44336227-1.3103554L.6 20.8999997c0-.8008129.6491871-1.4500001 1.44999996-1.4500001L4.95 19.449V15.1l-2.90000004 5e-7c-.75370623 0-1.37310035-.5750585-1.44336227-1.3103554L.6 13.6500004c0-.8008129.6491871-1.45 1.44999996-1.45L4.95 12.2V9.3c0-2.40243866 1.94756134-4.35 4.35-4.35h2.9l4e-7-2.90000004c0-.75370623.5750585-1.37310035 1.3103553-1.44336227L13.6500004.6c.8008129 0 1.4500001.6491871 1.4500001 1.44999996L15.1 4.95h5.799l.0009992-2.90000004c0-.75370623.5750585-1.37310035 1.3103554-1.44336227zm4.3499998 7.24999981H9.29999975c-.80081285 0-1.44999994.64918709-1.44999994 1.44999994V26.6999991c0 .8008129.64918709 1.4499999 1.44999994 1.4499999H26.6999991c.8008129 0 1.4499999-.649187 1.4499999-1.4499999V9.29999975c0-.80081285-.649187-1.44999994-1.4499999-1.44999994zm-4.3499984 4.35000059c.8008129 0 1.4500001.6491871 1.4500001 1.45v8.7000003c0 .8008129-.6491872 1.4500001-1.4500001 1.4500001h-8.7000003c-.8008129 0-1.45-.6491872-1.45-1.4500001v-8.7000003c0-.8008129.6491871-1.45 1.45-1.45h8.7000003zm-1.4500009 2.8999992h-5.8000002v5.8000002h5.8000002v-5.8000002z"/></defs><g fill="none" fill-rule="evenodd"><path d="M0 0h36v36H0z"/><use fill="currentColor" xlink:href="#a"/></g></svg>