<svg width="22" height="22" viewBox="0 0 22 22" xmlns="http://www.w3.org/2000/svg"><title>Save</title><g fill="none" fill-rule="evenodd"><circle fill="#212121" cx="11" cy="11" r="11"/><path d="M10.5 10.5H6.50964952C6.2276528 10.5 6 10.7238576 6 11c0 .2680664.22817786.5.50964952.5H10.5v3.9903505C10.5 15.7723472 10.7238576 16 11 16c.2680664 0 .5-.2281779.5-.5096495V11.5h3.9903505C15.7723472 11.5 16 11.2761424 16 11c0-.2680664-.2281779-.5-.5096495-.5H11.5V6.50964952C11.5 6.2276528 11.2761424 6 11 6c-.2680664 0-.5.22817786-.5.50964952V10.5z" fill="#FFF"/></g></svg>