<svg xmlns="http://www.w3.org/2000/svg" viewBox="0 0 162 186"><g fill="none" fill-rule="evenodd"><path stroke="#DDE0E0" d="M81 1L41 24 1 47v92l40 23 40 23 40-23 40-23V47l-40-23z"/><path d="M56 68h50v50H56z"/><path fill="#75BCA8" d="M101.7983333 90.7066671H99.26V76.95333331c-.0145884-2.94497773-2.3983557-5.3287451-5.3433333-5.34333349H61.34333333C58.3983557 71.62458821 56.01458839 74.00835558 56 76.95333331V99.4200007c.0191462 2.9414486 2.40185409 5.3196973 5.34333333 5.3333335h2.87333334L63.285 113.8166678l-.01.2c.00008582 1.0126986.76735188 1.8606537 1.775 1.9616667l.20166667.01c.51747681-.0006984 1.01408083-.2041266 1.38333333-.5666667l10.6933333-10.666667h3.9433334v.8716667c.0200526 2.3098282 1.8934358 4.1742976 4.2033333 4.1833335h8.0966667l5.7066666 5.6066668c.7764358.7637415 2.0245932.7547941 2.79-.02.3650264-.3692355.569824-.8674566.57-1.3866667l-.03-.3433333-.68-3.8700002c2.2532077-.0748151 4.0479284-1.9106756 4.0716667-4.1650001v-10.741667c-.0191456-2.3095592-1.8920459-4.1742874-4.2016667-4.1833334zm-4.1850002 17.4399984v.0200004l.0216667.1233329-1.8850001-1.8583332c-.3698078-.3573748-.8640626-.5569892-1.3783334-.5566667h-8.896667l-.255-.2366666v-.8716667h8.696667c2.9418548-.0127342 5.3250885-2.3915076 5.3433335-5.3333332v-4.7666665h2.5383335l.255.2366666v10.7416664l-.255.2366667h-2.2350001c-1.0817148-.0000755-1.9622203.8700274-1.9750001 1.9516666v.0116667l.025.3016666zm-29.2616662-5.1666648l.01-.185c-.0006789-1.0185878-.7758904-1.8695882-1.79-1.965l-.15-.01h-5.0783336c-.37342307.0121323-.73524836-.1306524-.99975312-.3945259-.26450475-.2638734-.4081536-.6253565-.39691361-.9988075V76.95333328c-.01121555-.37359415.13238463-.73522912.39683234-.99936126.26444771-.26413214.62625389-.40730041.99983439-.39563878H93.916668c.3735805-.01166163.7353867.13150664.9998344.39563878.2644477.26413214.4080479.62576711.3968324.99936126V99.4200006c.0112155.3735942-.1323847.7352292-.3968324.9993613-.2644477.2641321-.6262539.4073004-.9998344.3956388H76.5000006c-.5206815.000158-1.0200141.2069644-1.3883334.575l-7.3333336 7.3100002.5733333-5.7200002z"/><path fill="#75BCA8" d="M88.8616655 91.283333c1.7102418 0 3.0966667-1.3864249 3.0966667-3.0966667 0-1.7102419-1.3864249-3.0966668-3.0966667-3.0966668-1.7102418 0-3.0966667 1.3864249-3.0966667 3.0966668.0009195 1.7098607 1.3868059 3.0957472 3.0966667 3.0966667zM77.6483327 91.283333c1.7102418 0 3.0966667-1.3864249 3.0966667-3.0966667 0-1.7102419-1.3864249-3.0966668-3.0966667-3.0966668-1.7102418 0-3.0966668 1.3864249-3.0966668 3.0966668 0 1.7102418 1.386425 3.0966667 3.0966668 3.0966667zM66.3983331 85.0899963c-1.70958818.0027645-3.0935044 1.3904093-3.09166673 3.0999988.00184134 1.7095894 1.38874054 3.0942529 3.09833073 3.0933347 1.7095902-.0009191 3.0950027-1.3870722 3.0950027-3.0966627 0-.8221541-.3269402-1.6105621-.9087597-2.1914437-.5818195-.5808816-1.3707539-.9065505-2.192907-.9052271z"/></g></svg>