<?xml version="1.0" encoding="utf-8"?>
<!-- Generator: Adobe Illustrator 20.1.0, SVG Export Plug-In . SVG Version: 6.00 Build 0)  -->
<svg version="1.1" id="Layer_1" xmlns="http://www.w3.org/2000/svg" xmlns:xlink="http://www.w3.org/1999/xlink" x="0px" y="0px"
	 viewBox="0 0 20 12" style="enable-background:new 0 0 20 12;" xml:space="preserve">
<style type="text/css">
	.st0{fill:#797979;}
</style>
<path class="st0" d="M12.1,0c0,0-1.1,0-1.1,0.9s1.1,1,1.1,1H14c2.3,0,4.1,1.8,4.1,4.1c0,1.1-0.4,2.1-1.2,2.9
	c-0.8,0.8-1.8,1.2-2.9,1.2h-1.9c0,0-1.1-0.1-1.1,0.9c0,1,1.1,1,1.1,1H14c3.3,0,6-2.7,6-6c0-3.3-2.7-6-6-6H12.1z M6,1.9h1.9
	c0,0,1.1,0,1.1-1S7.9,0,7.9,0H6C2.7,0,0,2.7,0,6s2.7,6,6,6h1.9c0,0,1.1,0,1.1-1c0-1-1.1-0.9-1.1-0.9H6c-2.3,0-4.1-1.8-4.1-4.1
	C1.9,3.7,3.7,1.9,6,1.9z M12.9,7c0,0,1.1,0,1.1-1s-1.1-1-1.1-1H7.1C7.1,5,6,5.1,6,6c0,0.9,1.1,1,1.1,1H12.9z"/>
</svg>
