<svg xmlns="http://www.w3.org/2000/svg" width="22" height="16"><path fill-rule="evenodd" d="M8.728 10.95V4.56l5.944 3.207-5.944 3.185zM21.78 3.452s-.215-1.567-.874-2.257C20.069.287 19.13.283 18.7.23 15.623 0 11.005 0 11.005 0h-.01S6.377 0 3.3.23c-.43.053-1.368.057-2.205.964C.434 1.884.22 3.45.22 3.45S0 5.293 0 7.133V8.86c0 1.841.22 3.682.22 3.682s.215 1.567.874 2.258c.837.906 1.937.878 2.426.972C5.28 15.946 11 16 11 16s4.623-.007 7.701-.237c.43-.054 1.368-.058 2.205-.964.659-.69.874-2.258.874-2.258S22 10.7 22 8.859V7.133c0-1.84-.22-3.682-.22-3.682z"/></svg>